<?xml version="1.0" standalone="no"?>
<!DOCTYPE svg PUBLIC "-//W3C//DTD SVG 20010904//EN"
 "http://www.w3.org/TR/2001/REC-SVG-20010904/DTD/svg10.dtd">
<svg version="1.0" xmlns="http://www.w3.org/2000/svg"
 width="1080.000000pt" height="1080.000000pt" viewBox="0 0 1080.000000 1080.000000"
 preserveAspectRatio="xMidYMid meet">

<g transform="translate(0.000000,1080.000000) scale(0.100000,-0.100000)"
fill="#000000" stroke="none">
<path d="M2672 6860 c-71 -16 -123 -100 -125 -201 0 -30 3 -113 8 -184 4 -72
5 -157 1 -189 l-8 -58 -33 77 c-42 97 -84 166 -152 251 -58 73 -79 127 -64
165 10 24 10 24 10 2 2 -49 93 -72 130 -32 38 41 28 124 -20 149 -36 20 -125
8 -155 -21 -46 -43 -57 -75 -52 -158 4 -61 13 -94 48 -171 39 -89 80 -221 80
-261 0 -12 -30 12 -87 70 -49 48 -127 113 -174 144 -84 55 -119 96 -119 142 0
14 3 13 19 -6 13 -17 29 -23 56 -23 48 0 75 31 75 86 0 109 -161 121 -216 16
-43 -83 -9 -183 107 -313 73 -82 119 -147 158 -223 l22 -43 -78 54 c-93 65
-170 105 -276 142 -55 20 -86 37 -107 62 -29 33 -44 71 -18 45 7 -7 29 -12 49
-12 74 0 103 88 48 146 -17 18 -33 24 -67 24 -38 0 -50 -5 -82 -38 -95 -95
-44 -222 140 -345 73 -49 228 -193 218 -202 -3 -3 -30 6 -60 20 -76 35 -195
64 -304 74 -99 9 -145 28 -172 71 -11 18 -12 21 -2 13 17 -15 64 -17 89 -3 10
5 24 22 30 39 10 24 10 34 -3 59 -74 142 -255 9 -193 -141 16 -38 84 -102 130
-122 18 -8 74 -30 126 -50 96 -38 184 -86 236 -129 l30 -25 -39 9 c-77 17
-202 21 -286 10 -167 -23 -204 -24 -238 -6 -37 19 -50 36 -22 29 48 -13 100
30 100 81 0 25 -53 76 -85 81 -72 13 -141 -84 -116 -164 29 -98 99 -135 295
-157 184 -20 387 -84 269 -84 -66 0 -204 -39 -320 -90 -118 -53 -140 -57 -188
-36 l-30 13 28 0 c52 1 92 66 67 112 -13 25 -60 51 -93 51 -36 0 -75 -36 -88
-81 -16 -53 1 -108 46 -148 64 -56 139 -62 332 -27 51 9 126 16 170 14 l78 -3
-75 -39 c-85 -44 -152 -90 -225 -155 -75 -66 -104 -81 -155 -80 -25 1 -35 4
-23 6 31 6 53 41 53 84 0 41 -13 55 -59 69 -137 39 -167 -173 -34 -232 74 -32
141 -21 293 51 115 55 213 91 247 91 8 0 -9 -20 -37 -45 -71 -63 -131 -133
-190 -220 -49 -73 -76 -95 -134 -109 l-28 -7 26 23 c58 50 23 138 -55 138 -28
0 -75 -26 -83 -45 -15 -41 -6 -104 20 -135 40 -47 79 -63 137 -57 71 9 120 36
224 126 82 71 177 135 226 154 11 4 3 -13 -24 -49 -51 -70 -109 -178 -144
-272 -28 -74 -67 -125 -105 -135 -20 -5 -21 -4 -6 12 24 27 20 78 -9 106 -29
30 -59 32 -102 5 -93 -56 -20 -211 99 -210 78 1 152 55 235 173 52 75 190 224
198 215 2 -2 -7 -34 -20 -70 -28 -78 -52 -193 -60 -299 -7 -82 -28 -130 -67
-150 -19 -9 -21 -9 -11 2 21 22 15 68 -12 94 -33 34 -75 33 -114 -4 -84 -79
22 -213 143 -180 84 23 134 94 200 280 24 68 123 246 131 237 2 -2 -1 -39 -7
-83 -11 -89 -4 -202 18 -313 17 -81 12 -125 -17 -162 l-20 -25 7 27 c5 22 0
34 -24 58 -39 39 -74 39 -113 1 -69 -70 -10 -171 101 -171 57 0 96 23 131 78
38 60 45 90 58 239 7 79 20 151 38 205 l26 83 12 -80 c16 -104 37 -178 86
-292 42 -100 46 -131 24 -178 -10 -19 -13 -22 -9 -7 7 30 -44 82 -81 82 -31 0
-72 -38 -81 -76 -11 -45 7 -77 58 -102 61 -31 109 -23 159 27 61 60 72 144 44
316 -16 94 -19 201 -9 253 6 29 10 25 60 -76 29 -59 75 -133 101 -166 111
-136 127 -167 112 -216 -6 -23 -7 -23 -8 -3 -2 52 -85 70 -126 28 -29 -28 -34
-88 -10 -122 36 -51 137 -48 187 4 73 76 64 183 -31 370 -33 66 -74 203 -69
230 2 10 19 -4 50 -44 56 -72 135 -141 239 -211 51 -34 81 -62 93 -85 25 -54
21 -71 -10 -40 -20 20 -31 24 -57 19 -48 -10 -67 -33 -67 -83 0 -85 85 -122
167 -72 44 28 63 66 63 132 0 70 -31 131 -116 227 -78 88 -111 135 -148 208
l-27 54 63 -45 c76 -54 182 -108 269 -137 85 -29 113 -45 138 -76 23 -29 30
-57 9 -36 -20 20 -85 15 -108 -8 -49 -49 -3 -150 68 -150 114 0 171 134 103
241 -30 49 -78 91 -181 159 -68 46 -175 142 -192 173 -9 17 -8 17 20 3 60 -31
206 -66 320 -77 131 -12 160 -20 192 -54 l22 -23 -40 5 c-34 5 -45 1 -66 -20
-31 -31 -33 -61 -7 -104 65 -106 225 5 190 133 -13 45 -71 109 -122 136 -22
11 -84 35 -138 53 -81 27 -229 98 -229 109 0 2 54 1 120 -2 89 -3 149 0 228
13 115 19 145 17 183 -14 l24 -20 -23 6 c-45 11 -92 -34 -92 -88 0 -33 56 -79
97 -79 67 0 121 87 103 167 -11 48 -73 105 -138 128 -26 8 -96 20 -156 26
-105 10 -239 38 -274 58 -14 8 -12 10 13 16 131 29 204 53 294 96 73 34 116
49 145 49 54 0 78 -15 38 -23 -38 -8 -67 -63 -53 -100 20 -51 101 -75 143 -43
30 22 50 84 43 128 -20 118 -148 156 -365 109 -105 -23 -308 -30 -260 -9 126
56 196 93 258 139 160 118 161 119 211 119 l46 -1 -31 -13 c-35 -15 -44 -32
-44 -80 0 -42 26 -66 79 -73 35 -5 44 -2 71 25 58 59 33 168 -50 210 -75 38
-141 29 -293 -39 -89 -40 -196 -72 -277 -84 l-44 -6 64 50 c86 65 160 142 223
231 59 83 87 107 137 116 l35 7 -27 -22 c-19 -16 -28 -32 -28 -52 0 -67 43
-97 111 -79 78 21 90 116 25 188 -30 32 -39 36 -94 40 -80 6 -138 -21 -262
-122 -78 -64 -248 -166 -277 -166 -4 0 9 17 29 38 70 73 145 200 187 317 24
64 42 91 81 118 34 23 44 21 26 -5 -22 -32 -20 -62 7 -94 39 -46 122 -28 149
31 17 37 -5 97 -47 134 -30 26 -44 31 -88 31 -83 0 -144 -43 -238 -165 -73
-96 -186 -212 -228 -234 -16 -9 -14 -2 10 42 44 82 76 176 99 288 24 115 38
149 73 172 l25 16 -11 -30 c-14 -36 4 -75 46 -99 25 -14 30 -13 64 5 75 40 77
113 7 175 -29 25 -43 30 -88 30 -42 0 -61 -6 -92 -29 -61 -43 -88 -81 -147
-204 -48 -99 -157 -257 -177 -257 -3 0 2 33 13 73 16 56 21 111 23 249 3 181
9 215 49 248 14 11 15 10 6 -11 -13 -36 10 -84 46 -97 40 -13 87 7 107 47 23
44 20 66 -14 105 -58 65 -141 71 -206 14 -56 -49 -83 -106 -109 -231 -14 -63
-34 -139 -45 -169 -26 -65 -79 -167 -80 -151 -3 96 -43 267 -85 371 -28 69
-31 125 -10 162 l14 25 1 -32 c0 -38 39 -73 80 -73 56 0 99 86 70 141 -20 37
-93 61 -148 49z m-62 -719 c0 -5 -25 -30 -55 -56 -30 -25 -58 -57 -61 -70 -6
-23 -6 -23 -24 -5 -11 11 -38 24 -62 30 -104 27 -117 38 -71 59 80 37 273 67
273 42z m184 -11 c220 -56 427 -241 495 -442 32 -95 30 -96 -55 -38 -33 22
-67 40 -78 40 -13 0 -16 5 -11 18 7 17 11 46 18 132 l4 46 -41 4 c-23 2 -66 4
-97 4 -52 1 -56 3 -56 24 0 40 -55 163 -67 152 -7 -5 -34 -14 -61 -20 -28 -6
-62 -19 -77 -30 -27 -20 -27 -20 -33 0 -3 11 -31 40 -61 66 -30 26 -54 50 -54
55 0 16 94 10 174 -11z m-79 -151 c0 -41 -2 -44 -25 -41 -28 2 -70 44 -70 70
-1 10 -8 2 -18 -18 -19 -38 -67 -69 -84 -52 -5 5 -10 24 -10 43 -1 28 7 40 53
80 l53 48 51 -43 c46 -40 50 -47 50 -87z m-439 12 c-15 -33 -26 -69 -26 -78 0
-15 -8 -19 -42 -19 -24 0 -66 -4 -94 -9 l-51 -7 4 -67 c3 -36 8 -78 13 -93 9
-28 5 -38 -17 -38 -8 0 -41 -19 -73 -42 -33 -23 -63 -39 -66 -35 -11 11 15 86
59 171 49 95 173 227 257 275 67 37 72 29 36 -58z m135 28 c42 -10 56 -25 69
-68 l9 -31 -42 0 c-28 0 -48 7 -64 22 l-23 21 0 -38 c0 -26 -7 -46 -22 -62
l-22 -23 -23 22 c-30 28 -29 52 3 122 28 61 19 59 115 35z m524 -40 c23 -53
25 -64 15 -89 -21 -50 -35 -54 -65 -19 -21 26 -25 39 -20 66 l6 33 -25 -25
c-19 -18 -36 -25 -66 -25 -44 0 -47 5 -26 55 11 26 23 36 53 44 52 13 76 18
89 20 6 0 24 -26 39 -60z m-681 -120 c14 -11 26 -27 26 -35 0 -22 -59 -44 -88
-33 -34 13 -34 12 -17 -22 13 -25 14 -37 5 -65 -13 -39 -12 -39 -49 -19 -36
18 -41 32 -41 109 l0 63 48 10 c72 16 87 15 116 -8z m835 9 l51 -11 0 -59 c0
-70 -10 -92 -50 -113 -29 -15 -31 -15 -40 10 -14 36 -12 58 5 81 20 27 19 37
-4 24 -29 -15 -66 -12 -91 8 l-21 17 21 28 c24 31 50 34 129 15z m-951 -222
c27 -26 -26 -75 -81 -76 -20 -1 -20 -2 6 -16 28 -15 47 -49 47 -85 0 -15 -7
-19 -33 -19 -40 0 -68 26 -95 91 l-20 46 36 29 c20 16 45 35 56 41 23 14 64 9
84 -11z m1079 -13 l50 -37 -21 -48 c-31 -69 -50 -88 -91 -88 -32 0 -35 3 -35
28 0 31 13 51 50 76 l24 16 -36 0 c-28 0 -42 7 -63 32 l-27 31 24 13 c39 22
73 16 125 -23z m-544 -4 c138 -38 190 -216 95 -325 -77 -87 -199 -96 -285 -21
-93 82 -95 216 -5 300 52 50 123 66 195 46z m654 -76 c9 -58 9 -197 -1 -236
-6 -25 -9 -27 -22 -16 -9 7 -26 34 -40 60 -13 26 -34 56 -46 65 l-23 17 33 34
c17 19 32 40 32 46 0 18 38 77 49 77 5 0 13 -21 18 -47z m-1369 -15 c15 -29
38 -64 52 -78 l25 -27 -22 -17 c-13 -9 -34 -39 -47 -65 -14 -26 -31 -53 -39
-59 -12 -10 -16 -7 -21 19 -8 41 -8 207 0 248 4 17 10 31 15 31 5 0 21 -23 37
-52z m1240 -124 c12 -8 34 -39 48 -67 l27 -51 -44 -38 c-24 -21 -54 -41 -67
-44 -25 -7 -82 13 -82 28 0 21 59 68 87 68 l28 1 -28 15 c-28 15 -47 49 -47
85 0 24 45 26 78 3z m-1088 -14 c0 -32 -21 -67 -49 -81 l-26 -12 39 -7 c35 -7
75 -40 76 -63 0 -4 -14 -14 -32 -21 -39 -17 -69 -7 -121 39 l-38 33 30 60 c33
65 39 70 89 71 25 1 32 -3 32 -19z m1204 -147 c-20 -86 -106 -249 -129 -245
-5 1 -13 32 -16 70 -4 38 -12 78 -18 90 -9 18 -7 21 19 30 16 6 51 27 76 46
58 44 77 47 68 9z m-1334 -11 c45 -37 74 -52 100 -52 19 0 19 -2 6 -22 -7 -13
-16 -57 -18 -99 l-5 -77 51 -8 c28 -4 72 -7 97 -7 44 0 46 -2 47 -28 0 -15 10
-49 21 -75 12 -26 21 -55 21 -66 0 -34 -96 27 -192 123 -71 72 -94 103 -132
180 -74 150 -72 193 4 131z m200 -77 c10 -30 9 -40 -5 -61 -20 -31 -16 -38 17
-25 16 6 34 5 57 -5 38 -16 38 -38 -1 -67 -24 -18 -31 -19 -92 -6 l-66 13 0
66 c0 68 9 89 45 108 30 17 32 15 45 -23z m938 15 c22 -21 32 -60 29 -121 -1
-34 -4 -37 -44 -47 -70 -19 -106 -15 -134 14 l-24 26 24 19 c26 21 48 24 87 9
27 -10 27 -10 10 14 -27 42 -19 106 13 106 10 0 27 -9 39 -20z m-753 -246 l-6
-34 25 25 c19 18 36 25 66 25 44 0 47 -5 26 -55 -15 -34 -27 -40 -122 -60 -30
-6 -32 -4 -57 53 -33 72 -33 82 -5 117 l22 28 29 -33 c24 -27 28 -38 22 -66z
m579 74 c23 -32 20 -71 -9 -128 l-24 -48 -63 14 c-72 17 -85 27 -94 70 -5 28
-3 32 19 36 32 6 82 -14 95 -39 8 -14 9 -9 5 22 -4 31 0 46 17 68 26 33 34 34
54 5z m230 -17 c3 -5 -27 -40 -67 -77 -117 -112 -304 -194 -441 -194 l-50 0
62 63 c34 34 62 68 62 75 0 16 10 15 30 -3 8 -8 40 -21 70 -29 30 -8 62 -17
71 -20 11 -5 22 9 42 59 15 36 27 78 27 93 0 26 2 27 38 24 20 -2 55 1 77 6
53 13 73 14 79 3z m-595 -75 c8 -6 20 -24 27 -41 l13 -30 11 33 c11 29 52 62
78 62 6 0 13 -16 16 -35 8 -42 -3 -61 -65 -108 l-44 -34 -52 45 c-53 45 -64
72 -47 116 7 18 36 14 63 -8z m-21 -131 c29 -27 52 -53 52 -57 0 -23 -169 2
-259 38 -53 21 -42 38 36 55 30 7 65 21 77 31 20 16 22 16 31 0 6 -9 34 -39
63 -67z"/>
<path d="M5790 6362 c0 -5 -60 -155 -134 -333 l-133 -324 -42 -20 c-22 -11
-41 -23 -41 -27 0 -5 41 -8 90 -8 95 0 113 10 55 31 -19 7 -34 16 -33 19 2 4
16 41 33 84 l30 77 123 -3 123 -3 30 -71 c16 -39 43 -84 60 -100 28 -27 36
-29 125 -32 94 -4 118 5 66 24 -21 8 -33 26 -55 80 -15 38 -78 191 -141 339
-94 224 -117 271 -135 273 -11 2 -21 -1 -21 -6z m1 -338 c27 -65 49 -124 49
-131 0 -10 -27 -13 -105 -13 -58 0 -105 3 -105 7 0 11 105 261 108 258 2 -1
25 -56 53 -121z"/>
<path d="M7877 6188 c-41 -101 -104 -252 -139 -336 -71 -174 -79 -181 -176
-174 l-52 4 2 326 c3 318 4 327 23 330 11 2 24 8 30 13 5 5 -99 9 -258 9 -247
0 -321 -8 -232 -24 l35 -7 -5 -92 c-3 -51 -10 -162 -15 -247 -9 -167 -22 -216
-74 -278 -24 -27 -34 -32 -72 -32 l-44 0 0 -100 c0 -93 1 -100 20 -100 26 0
78 71 92 127 l10 43 234 0 c229 0 234 0 234 -20 0 -55 65 -150 102 -150 16 0
18 10 18 85 l0 85 85 0 c90 0 108 11 50 30 -19 6 -35 16 -35 21 0 5 14 43 31
84 l32 75 121 0 121 0 19 -48 c55 -138 86 -162 213 -162 43 0 93 -4 112 -10
72 -20 127 33 152 149 6 28 16 162 22 298 l12 248 98 3 97 3 0 -331 0 -330
-30 -6 c-69 -14 -21 -24 115 -24 136 0 184 10 115 24 l-30 6 2 327 c3 319 4
328 23 331 11 2 24 8 30 13 5 5 -99 9 -259 9 -245 0 -310 -7 -225 -24 l32 -6
-7 -188 c-11 -279 -21 -366 -48 -420 -35 -71 -48 -66 -48 17 l0 71 -40 0 c-59
0 -84 -28 -78 -90 8 -76 -12 -52 -70 88 -30 70 -95 225 -145 345 -67 161 -95
217 -107 217 -13 0 -37 -48 -93 -182z m-537 -178 l0 -330 -154 0 -155 0 34 56
c42 70 52 121 60 299 3 77 8 177 11 223 l6 82 99 0 99 0 0 -330z m660 -121 c0
-5 -47 -9 -105 -9 -62 0 -105 4 -105 10 0 9 66 178 91 232 12 27 14 24 66 -98
29 -70 53 -131 53 -135z"/>
<path d="M4505 6350 c3 -5 15 -10 25 -10 52 0 50 11 50 -326 l0 -315 -45 -19
c-25 -11 -45 -22 -45 -25 0 -3 45 -5 100 -5 55 0 100 4 100 8 0 5 -18 15 -40
22 l-40 13 0 266 0 266 56 -105 c30 -58 99 -189 152 -292 66 -128 102 -188
113 -188 13 0 43 66 120 258 156 392 139 384 139 60 l0 -276 -30 -7 c-68 -15
-22 -25 115 -25 80 0 145 2 145 6 0 3 -13 10 -30 15 l-30 11 0 324 c0 251 3
325 13 328 52 16 46 21 -29 24 -97 3 -127 -7 -154 -50 -11 -18 -57 -126 -102
-240 -46 -114 -85 -208 -88 -208 -3 0 -56 99 -118 219 -116 224 -136 256 -179
272 -34 13 -206 12 -198 -1z"/>
<path d="M6196 6351 c5 -5 18 -11 29 -13 19 -3 20 -12 23 -331 l2 -327 -30 -6
c-69 -14 -21 -24 115 -24 136 0 184 10 115 24 l-30 6 0 155 0 155 110 0 110 0
0 -155 0 -155 -30 -6 c-69 -14 -21 -24 115 -24 136 0 184 10 115 24 l-30 6 2
327 c3 319 4 328 23 331 11 2 24 8 29 13 6 5 -50 9 -139 9 -89 0 -145 -4 -139
-9 5 -5 18 -11 29 -13 19 -3 20 -12 23 -161 l3 -157 -111 0 -111 0 3 157 c3
149 4 158 23 161 11 2 24 8 30 13 5 5 -51 9 -140 9 -89 0 -145 -4 -139 -9z"/>
<path d="M4720 5028 c-212 -511 -192 -471 -239 -488 -22 -8 -41 -18 -41 -22 0
-4 43 -8 95 -8 99 0 120 10 60 30 -19 6 -35 15 -35 18 0 4 14 42 31 85 l31 77
122 0 122 0 34 -80 c48 -117 77 -134 215 -128 67 3 69 4 40 16 -28 12 -42 41
-175 357 -105 252 -148 345 -160 345 -12 0 -40 -57 -100 -202z m85 -164 c25
-59 45 -111 45 -115 0 -5 -49 -9 -110 -9 l-109 0 40 98 c23 53 48 113 56 132
17 42 15 45 78 -106z"/>
<path d="M5652 5196 c-20 -23 -36 -60 -51 -117 -39 -150 -52 -168 -126 -177
l-46 -5 3 149 c3 140 4 149 23 152 11 2 24 8 30 13 5 5 -50 9 -138 9 -138 0
-186 -10 -117 -23 l30 -6 0 -326 0 -325 -30 -6 c-69 -14 -21 -24 115 -24 136
0 184 10 115 24 l-30 6 0 170 0 170 44 0 43 0 48 -142 c54 -161 73 -200 110
-216 29 -14 355 -17 355 -4 0 4 -18 14 -39 22 l-39 15 32 80 32 80 122 3 122
3 25 -58 c55 -130 83 -153 181 -153 l64 0 0 -86 c0 -82 1 -85 22 -82 30 4 87
81 94 129 l7 39 232 0 233 0 7 -32 c15 -69 64 -138 97 -138 16 0 18 10 18 94
l0 95 -47 3 -48 3 -3 328 -2 327 30 7 c84 16 17 23 -230 23 -253 0 -314 -7
-229 -25 l31 -7 -7 -146 c-14 -298 -20 -354 -50 -411 -36 -73 -66 -101 -107
-101 -18 0 -39 4 -46 8 -7 5 -77 161 -155 348 -113 269 -146 339 -161 339 -14
0 -42 -57 -132 -275 -63 -151 -125 -302 -139 -336 -21 -50 -31 -62 -60 -73
-61 -22 -68 -14 -120 142 -54 165 -80 199 -157 211 l-46 7 23 42 c12 23 32 81
45 129 15 58 30 94 46 109 l24 22 0 -71 c0 -67 1 -72 24 -78 28 -7 81 18 90
41 27 71 -16 135 -89 135 -36 0 -48 -5 -73 -34z m1323 -331 l0 -330 -157 -3
c-87 -1 -158 1 -158 6 0 5 9 17 19 26 11 10 29 40 41 69 24 55 34 143 45 410
l7 158 102 -3 101 -3 0 -330z m-779 14 c27 -67 51 -126 52 -130 2 -5 -47 -9
-108 -9 -61 0 -110 4 -108 9 43 111 103 251 108 251 3 0 28 -55 56 -121z"/>
<path d="M7300 5211 c0 -5 14 -11 30 -14 l30 -6 0 -326 0 -325 -30 -6 c-81
-17 -5 -24 250 -24 l280 0 0 90 c0 82 -2 90 -19 90 -25 0 -60 -56 -69 -112
l-8 -43 -117 -3 -117 -3 0 161 0 160 55 0 54 0 22 -50 c15 -35 27 -50 40 -50
18 0 19 9 19 116 0 105 -2 115 -17 112 -10 -2 -29 -24 -42 -50 l-23 -48 -54 0
-54 0 0 160 0 160 105 0 105 0 6 -27 c12 -56 17 -69 36 -100 11 -19 28 -33 39
-33 17 0 19 8 19 90 l0 90 -270 0 c-148 0 -270 -4 -270 -9z"/>
<path d="M7935 5212 c6 -6 21 -12 35 -14 l25 -3 3 -322 2 -321 -35 -12 c-64
-21 -49 -30 54 -30 56 0 101 4 101 8 0 5 -18 14 -40 21 l-39 12 -3 269 c-2
149 -2 270 -2 270 1 0 71 -133 155 -295 107 -204 159 -295 170 -295 13 0 46
72 129 283 62 155 117 286 121 292 5 5 9 -112 9 -263 l0 -272 -30 -7 c-73 -14
-30 -23 110 -23 98 0 149 4 145 10 -3 6 -14 10 -24 10 -39 0 -41 12 -41 342
l0 319 30 6 c17 3 33 10 36 15 4 6 -29 9 -89 7 -82 -3 -99 -7 -119 -26 -14
-13 -59 -112 -113 -247 -49 -124 -92 -226 -95 -226 -3 0 -57 99 -119 220 -63
121 -128 232 -144 248 -27 25 -34 27 -135 30 -71 3 -104 0 -97 -6z"/>
<path d="M8946 5211 c5 -5 18 -11 29 -13 19 -3 20 -12 23 -331 l2 -327 -30 -6
c-69 -14 -21 -24 115 -24 80 0 145 2 145 6 0 3 -13 10 -30 15 -27 10 -30 16
-30 51 0 31 21 78 102 226 56 103 110 201 120 217 18 29 18 25 18 -228 l0
-257 -30 -6 c-69 -14 -21 -24 116 -24 94 0 143 4 139 10 -3 6 -14 10 -24 10
-39 0 -41 12 -41 342 l0 319 30 6 c72 14 31 23 -104 23 -137 0 -185 -10 -116
-23 55 -11 43 -51 -81 -278 -61 -112 -115 -211 -120 -219 -5 -9 -8 94 -6 240
2 246 3 255 22 258 11 2 24 8 30 13 5 5 -51 9 -140 9 -89 0 -145 -4 -139 -9z"/>
</g>
</svg>
