<?xml version="1.0" encoding="UTF-8"?>
<svg version="1.1" xmlns="http://www.w3.org/2000/svg" width="1000" height="1000">
<path d="M0 0 C3.82758328 2.52658206 5.8439124 4.35710722 6.8359375 8.859375 C7.28107029 13.31070294 6.31234603 16.2807305 4.0234375 20.171875 C1.00545304 22.85452785 -0.42375676 23.18174653 -4.4765625 23.109375 C-8.22139532 22.10629478 -10.17588476 20.8028147 -12.9765625 18.171875 C-13.6556245 23.83072501 -12.63700228 27.3182817 -10.2265625 32.484375 C-7.60646205 38.24611248 -5.90115078 43.79189759 -4.6015625 49.984375 C-4.43430664 50.76014893 -4.26705078 51.53592285 -4.09472656 52.33520508 C-3.03453591 57.69030788 -2.83540159 62.71546277 -2.9765625 68.171875 C-2.3165625 68.171875 -1.6565625 68.171875 -0.9765625 68.171875 C-0.6053125 66.934375 -0.6053125 66.934375 -0.2265625 65.671875 C1.0234375 62.171875 1.0234375 62.171875 2.90625 58.69921875 C5.56246799 53.44835873 6.80878235 47.93676956 8.1484375 42.234375 C8.39980469 41.20119141 8.65117187 40.16800781 8.91015625 39.10351562 C10.30203372 33.36873593 10.30203372 33.36873593 11.53320312 27.59814453 C13.33083744 18.54039922 18.40502224 11.42011663 26.0234375 6.171875 C30.74737152 4.12483693 36.38447714 4.61462848 41.1484375 6.234375 C45.35026211 9.06603941 49.12985659 12.13965711 50.609375 17.16015625 C50.94694771 21.29944066 49.92497491 23.84091787 47.3984375 27.109375 C45.24852704 29.30963466 44.01636043 30.17458537 41.0859375 31.296875 C36.9980112 31.13002087 34.53439551 30.2916987 31.0234375 28.171875 C29.56659762 25.85837224 28.86915102 23.80851128 28.0234375 21.171875 C25.36781571 25.10892706 25.70895504 29.39682153 25.6796875 33.9609375 C25.6577533 35.24863541 25.6577533 35.24863541 25.63537598 36.56234741 C25.58894317 39.30714245 25.5547457 42.05186836 25.5234375 44.796875 C25.27278093 66.51915873 25.27278093 66.51915873 23.0234375 75.171875 C23.6834375 75.171875 24.3434375 75.171875 25.0234375 75.171875 C25.2915625 74.40875 25.5596875 73.645625 25.8359375 72.859375 C27.0234375 70.171875 27.0234375 70.171875 28.4609375 68.73828125 C30.13618975 67.05884087 31.09078892 65.50850557 32.2109375 63.421875 C32.84708984 62.24431641 32.84708984 62.24431641 33.49609375 61.04296875 C34.25212891 59.62177734 34.25212891 59.62177734 35.0234375 58.171875 C35.68847764 56.93341947 36.35386554 55.69515065 37.01953125 54.45703125 C40.91098278 47.22843788 40.91098278 47.22843788 44.62109375 39.90625 C47.94518319 33.42473856 53.28321059 27.84304021 59.9609375 24.859375 C65.36112133 23.64708883 70.10464638 23.46653988 75.0234375 26.171875 C81.59890133 30.94892137 81.59890133 30.94892137 82.7109375 34.15234375 C83.37269575 38.42895643 83.53688891 41.95580587 81.8359375 45.984375 C79.24917353 49.10633152 77.06346761 49.94430192 73.0625 50.390625 C70.00232665 50.52713831 67.4824804 50.36515622 64.6484375 49.171875 C62.15998862 46.10916869 61.78124464 43.0240613 61.0234375 39.171875 C57.80099966 42.93138582 56.78435192 45.75597385 56.2109375 50.671875 C55.37920226 57.21989974 53.60619834 63.26924596 51.5859375 69.546875 C51.28518311 70.48595703 50.98442871 71.42503906 50.67456055 72.39257812 C49.02128729 77.44192209 47.20546938 82.32736385 45.0234375 87.171875 C53.78001131 81.05556965 59.74212015 73.6467481 66.0234375 65.171875 C71.83097601 57.37188663 77.32336384 50.03419182 87.0234375 47.171875 C93.96426567 46.30906487 99.71809689 46.41810798 105.46484375 50.6953125 C109.18617975 54.22078871 110.18888067 57.76315469 110.4609375 62.734375 C110.3404392 65.98782913 110.01365008 67.18891237 108.3359375 70.109375 C104.99025119 73.09336549 102.44142347 73.99462675 98.0234375 74.546875 C94.19312015 74.06808533 92.69744363 72.92015908 90.0234375 70.171875 C88.24714882 66.788468 88.0234375 65.08253431 88.0234375 61.171875 C83.8768814 64.84133159 81.79126772 68.34836918 79.9609375 73.484375 C79.45014939 74.83027655 78.93714816 76.1753404 78.421875 77.51953125 C77.96039063 78.72480469 77.49890625 79.93007813 77.0234375 81.171875 C73.10438767 90.25150572 67.59874125 98.79956474 61.0234375 106.171875 C65.57395727 104.57919308 69.28690672 103.26417634 73.0234375 100.171875 C73.78914062 99.72199219 74.55484375 99.27210938 75.34375 98.80859375 C77.98740581 97.19388269 80.31113764 95.43991439 82.7109375 93.484375 C83.58492188 92.78441406 84.45890625 92.08445312 85.359375 91.36328125 C87.08095267 89.94714478 88.77628847 88.49820738 90.4375 87.01171875 C97.66287877 80.71598969 106.06555581 76.51858303 115.8984375 77.171875 C121.5678637 78.2225393 125.5850355 80.50635689 129.3984375 84.921875 C131.74664681 89.61829363 132.64499302 93.68565291 131.3359375 98.921875 C129.15617009 102.65861913 127.15260544 104.79548569 123.0234375 106.171875 C119.0432147 106.54041415 116.73707073 106.56833791 113.2109375 104.609375 C110.44763699 101.53026871 109.66658061 99.24511469 109.0234375 95.171875 C109.8984375 92.234375 109.8984375 92.234375 111.0234375 90.171875 C103.72368612 93.36551623 100.37742793 98.6823121 96.0234375 105.171875 C88.65640348 115.89300581 88.65640348 115.89300581 83.8359375 118.234375 C81.86337072 119.01946783 81.86337072 119.01946783 81.16796875 121.02734375 C79.7874506 123.61404841 78.27700465 124.7338596 75.8984375 126.421875 C75.17398438 126.94265625 74.44953125 127.4634375 73.703125 128 C72.87167969 128.58007812 72.87167969 128.58007812 72.0234375 129.171875 C82.23470202 127.6442055 91.80282107 125.02674625 100.953125 120.18359375 C110.85767979 115.34344339 122.36836685 111.82261585 133.2734375 115.234375 C138.21747749 117.32029857 141.65270776 121.43041553 144.0234375 126.171875 C144.43595437 131.09827844 144.6760789 135.64904508 142.7109375 140.234375 C140.52208249 142.74750483 138.84161191 144.06295395 135.5 144.5078125 C131.08382734 144.56830802 127.8982331 144.6092728 123.8984375 142.609375 C121.39618007 139.35644034 121.0234375 137.26402991 121.0234375 133.171875 C122.4609375 129.796875 122.4609375 129.796875 124.0234375 127.171875 C124.0234375 126.841875 124.0234375 126.511875 124.0234375 126.171875 C118.82915576 128.17875658 114.8379787 130.55619642 110.5234375 134.046875 C109.38069093 134.94592625 108.23746709 135.84437122 107.09375 136.7421875 C106.08054687 137.54398438 105.06734375 138.34578125 104.0234375 139.171875 C96.13387414 145.28091433 87.47258155 149.96273174 78.0234375 153.171875 C86.28827105 153.43564628 93.91549744 152.73434262 102.0234375 151.171875 C127.6530625 146.23283268 127.6530625 146.23283268 137.28515625 152.6875 C140.92123253 155.69036371 144.0906477 158.39132729 145.0234375 163.171875 C145.56998159 170.05833055 144.27935911 173.74287416 140.4609375 179.546875 C136.51786571 182.17558953 132.60316412 181.99406214 128.0234375 181.171875 C125.09373377 179.84499516 124.17527019 178.76510927 122.0234375 176.171875 C120.71636242 171.94310267 120.72936308 169.92806638 122.3359375 165.796875 C124.0234375 163.171875 124.0234375 163.171875 126.0234375 162.171875 C119.37018874 161.48949051 114.04007069 164.28647926 108.5234375 167.734375 C105.57583144 169.42924849 102.64066508 170.39854089 99.40625 171.41796875 C97.87127988 171.90362323 96.34405408 172.41485733 94.828125 172.95703125 C88.98553657 175.04067838 83.13610438 176.17482442 77.0234375 177.171875 C86.6193566 181.33388615 95.76328321 182.15888295 106.109375 182.86132812 C117.16605556 183.78076607 128.00334979 185.92960163 135.75390625 194.42578125 C138.8854997 198.73292671 139.56656943 202.21656426 139.48046875 207.4921875 C138.69026369 212.12535564 136.20568014 215.77283725 133.0234375 219.171875 C128.95471006 220.52811748 125.27321786 220.83793938 121.0234375 220.171875 C117.9498828 218.46646577 115.61764614 216.36029229 114.0234375 213.171875 C113.42374999 207.89462489 114.75179025 205.28480298 118.0234375 201.171875 C119.5084375 200.181875 119.5084375 200.181875 121.0234375 199.171875 C116.56593397 198.36141981 113.7131313 197.99945155 109.2734375 199.109375 C102.13510531 200.81020505 94.76171649 200.64213943 87.4609375 200.796875 C85.96026574 200.83513346 84.4596141 200.87418951 82.95898438 200.9140625 C79.31398806 201.00919696 75.66883796 201.09353408 72.0234375 201.171875 C80.02417552 206.14649409 88.47493645 208.82887582 97.4296875 211.6015625 C106.72139255 214.64090527 113.35193355 219.05050684 120.0234375 226.171875 C122.76753736 232.20889468 122.79840986 237.72459385 120.8359375 243.921875 C118.35820207 248.36471095 115.83816432 250.56696606 111.0234375 252.171875 C106.03585453 252.54132559 102.97384404 252.35414693 99.0234375 249.171875 C96.90863068 246.4736732 96.09880442 244.61465566 95.5234375 241.234375 C96.22082294 236.96288918 97.8895081 235.1014177 101.0234375 232.171875 C104.3359375 231.296875 104.3359375 231.296875 107.0234375 231.171875 C101.07437976 227.76855479 96.87573356 226.66125045 90.0859375 226.671875 C79.87571969 226.42090321 69.75927324 224.8982847 60.234375 221.04296875 C57.95430047 219.98859118 57.95430047 219.98859118 55.0234375 220.171875 C58.36237365 224.90203454 62.39019212 227.83830136 67.0234375 231.171875 C68.37865905 232.21216888 69.73284594 233.25381219 71.0859375 234.296875 C73.53150859 236.13942856 75.96307661 237.76480387 78.6484375 239.234375 C86.16190507 243.54766194 91.70791554 249.22507809 95.3984375 257.109375 C96.82512766 264.1001568 96.63063987 269.82817428 93.0234375 276.171875 C88.37057306 280.59209622 84.48110817 281.52799889 78.24609375 281.45703125 C74.8956635 281.02718695 73.26816466 279.62066827 71.0234375 277.171875 C68.71881067 274.09903922 68.53393243 270.81768251 68.65234375 267.0703125 C69.0234375 265.171875 69.0234375 265.171875 71.0234375 262.796875 C74.69550021 260.80784103 77.9353967 260.00334093 82.0234375 259.171875 C82.0234375 258.511875 82.0234375 257.851875 82.0234375 257.171875 C79.00058871 255.9250259 75.95324622 254.78080555 72.87109375 253.69140625 C59.76856905 249.03867299 46.77277887 244.28544703 36.0234375 235.171875 C36.78911616 236.75770748 37.56121715 238.34043994 38.3359375 239.921875 C38.97982422 241.24445313 38.97982422 241.24445313 39.63671875 242.59375 C40.94709822 245.18848315 40.94709822 245.18848315 42.69140625 247.375 C44.0234375 249.171875 44.0234375 249.171875 44.0234375 251.171875 C45.0134375 251.501875 46.0034375 251.831875 47.0234375 252.171875 C55.36477385 259.86492096 63.90166851 271.19772305 65.32421875 282.578125 C65.36159133 289.25536017 64.00971513 293.88765573 59.5234375 299.046875 C55.34657768 302.21877606 50.11644624 302.46099777 45.0234375 302.171875 C42.0686385 301.34070179 40.41409344 300.55997206 38.234375 298.39453125 C36.73250224 295.63786802 36.6229073 293.73682443 36.6484375 290.609375 C36.64070312 289.65933594 36.63296875 288.70929688 36.625 287.73046875 C37.08473295 284.77826206 37.64570884 283.9188916 40.0234375 282.171875 C42.90555052 281.21117066 44.72193794 281.06605617 47.7109375 281.109375 C48.51917969 281.11839844 49.32742188 281.12742187 50.16015625 281.13671875 C51.08248047 281.15412109 51.08248047 281.15412109 52.0234375 281.171875 C49.94073747 276.45108827 46.8822689 274.55994164 42.6875 271.90234375 C31.54443322 264.66425199 21.5133056 256.38624756 13.0234375 246.171875 C13.5791728 251.81073584 15.10761772 256.41930524 17.3359375 261.609375 C17.63177734 262.32158203 17.92761719 263.03378906 18.23242188 263.76757812 C19.75212892 267.38139553 21.36997266 270.91416956 23.14453125 274.41015625 C27.5392092 283.08332978 30.20853964 292.95868838 27.296875 302.5703125 C24.92128672 307.76570475 21.71014128 310.55985273 16.8359375 313.484375 C12.46027888 314.55398044 8.39592951 314.17704558 4.0234375 313.171875 C0.50449941 311.01742311 -0.67314633 310.08212352 -1.9765625 306.171875 C-2.22547975 301.69136457 -2.27058322 298.10448194 0.0234375 294.171875 C2.7084715 292.00893095 4.55073499 291.2422775 7.9609375 290.734375 C11.79567217 291.28219424 13.97361769 292.84820277 17.0234375 295.171875 C16.14317694 293.24800655 15.24350059 291.33301542 14.3359375 289.421875 C13.83707031 288.35453125 13.33820313 287.2871875 12.82421875 286.1875 C10.91722224 282.99400475 8.91619709 281.43877348 6.0234375 279.171875 C6.0234375 278.181875 6.0234375 277.191875 6.0234375 276.171875 C5.0334375 275.841875 4.0434375 275.511875 3.0234375 275.171875 C-3.29744228 267.32573945 -7.69006778 258.2270951 -11.9765625 249.171875 C-12.03562369 252.77597039 -12.07050889 256.37993809 -12.1015625 259.984375 C-12.12669922 261.49161133 -12.12669922 261.49161133 -12.15234375 263.02929688 C-12.19143778 269.1084179 -11.64570379 274.69149389 -10.44384766 280.64672852 C-8.67312266 290.21548955 -8.82190992 300.69164011 -13.9765625 309.171875 C-16.64052459 312.35563458 -18.05739959 313.86548736 -21.9765625 315.171875 C-23.93222753 315.29166645 -25.89227016 315.34715996 -27.8515625 315.359375 C-28.88023437 315.37355469 -29.90890625 315.38773438 -30.96875 315.40234375 C-35.62393715 315.04564759 -38.17128519 314.04072683 -41.3515625 310.609375 C-43.48574948 306.09474869 -43.44834005 302.90943113 -41.9765625 298.171875 C-39.91715683 295.01841007 -38.55075018 293.5169415 -34.8203125 292.69921875 C-30.30197381 292.40552673 -28.51522717 292.73214874 -24.9140625 295.671875 C-24.2746875 296.496875 -23.6353125 297.321875 -22.9765625 298.171875 C-22.3915779 291.67592656 -24.38463341 287.46112099 -27.1640625 281.671875 C-32.26901534 270.51764838 -34.83688518 259.20528805 -36.9765625 247.171875 C-39.86817977 257.97507455 -41.71879027 268.67433664 -42.93676758 279.79492188 C-44.18150967 290.93568702 -46.04419108 299.51555664 -54.9765625 307.171875 C-60.2502484 309.87003988 -65.32499442 309.28380953 -70.9765625 308.171875 C-74.58151249 306.86098409 -76.40707294 305.85526247 -78.8515625 302.921875 C-80.28815056 299.41021529 -80.38016172 296.93880109 -79.9765625 293.171875 C-78.48023522 290.03671307 -76.78660887 287.25339083 -73.9765625 285.171875 C-71.04274609 284.17171031 -69.04222726 283.75670977 -66.1015625 284.90234375 C-62.88135442 286.65333189 -61.02237709 288.10315311 -58.9765625 291.171875 C-58.6465625 290.841875 -58.3165625 290.511875 -57.9765625 290.171875 C-58.0419713 287.59417378 -58.16946247 285.05426174 -58.3515625 282.484375 C-58.39539063 281.77603516 -58.43921875 281.06769531 -58.484375 280.33789062 C-58.6867902 277.29322865 -58.942407 274.35859063 -59.49243164 271.35180664 C-60.01325649 267.93085674 -60.08952621 264.70167342 -60.07421875 261.2421875 C-60.06938477 259.30859375 -60.06938477 259.30859375 -60.06445312 257.3359375 C-60.05609983 255.98958264 -60.04763491 254.64322848 -60.0390625 253.296875 C-60.0340408 251.92708496 -60.02947907 250.55729315 -60.02539062 249.1875 C-60.01363504 245.8489131 -59.99720214 242.51041685 -59.9765625 239.171875 C-60.59035767 240.19812988 -60.59035767 240.19812988 -61.21655273 241.24511719 C-61.75481689 242.14391602 -62.29308105 243.04271484 -62.84765625 243.96875 C-63.38060303 244.85916992 -63.9135498 245.74958984 -64.46264648 246.66699219 C-65.63088847 248.59993248 -66.82887628 250.5149149 -68.0390625 252.421875 C-71.65787098 258.77355959 -73.60969378 266.12127623 -75.9375 273.01953125 C-78.6068404 280.40014337 -82.6789464 286.2899785 -89.3515625 290.609375 C-95.14017816 293.10446796 -99.63758442 293.87356842 -105.7265625 292.046875 C-109.08600802 290.10873335 -111.39915467 288.05250728 -113.9765625 285.171875 C-114.3065625 284.841875 -114.6365625 284.511875 -114.9765625 284.171875 C-115.94727985 274.54426849 -115.94727985 274.54426849 -113.1640625 270.609375 C-112.4421875 270.135 -111.7203125 269.660625 -110.9765625 269.171875 C-109.9865625 268.511875 -108.9965625 267.851875 -107.9765625 267.171875 C-104.31244428 266.83260479 -101.63907162 266.9363162 -98.1640625 268.171875 C-94.9255439 271.13280629 -94.74720455 273.89831453 -93.9765625 278.171875 C-91.31078803 275.09901624 -90.5486291 272.97666855 -90.203125 268.9453125 C-90.10298096 267.92107178 -90.00283691 266.89683105 -89.8996582 265.84155273 C-89.80128662 264.75430908 -89.70291504 263.66706543 -89.6015625 262.546875 C-88.47814677 251.65662044 -86.33792496 241.57482681 -82.9765625 231.171875 C-83.3065625 230.841875 -83.6365625 230.511875 -83.9765625 230.171875 C-90.83727509 235.38838233 -95.62824012 242.10450457 -100.39135742 249.21313477 C-106.62275184 258.4906352 -113.86359267 266.3010004 -125.3359375 268.65625 C-130.39321183 268.97014979 -134.06544017 267.71367771 -138.17578125 264.78125 C-141.95348134 261.4050842 -144.59288261 257.94084194 -145.30078125 252.83203125 C-145.1950987 249.4891252 -144.74671772 247.14589483 -142.6484375 244.4921875 C-138.82472345 241.32958289 -134.98673004 240.32248757 -130.0625 240.625 C-127.9765625 241.171875 -127.9765625 241.171875 -124.9765625 243.734375 C-122.85697995 247.37740751 -122.22721416 249.99434739 -121.9765625 254.171875 C-121.3165625 253.181875 -120.6565625 252.191875 -119.9765625 251.171875 C-119.3165625 251.171875 -118.6565625 251.171875 -117.9765625 251.171875 C-117.8528125 250.5634375 -117.7290625 249.955 -117.6015625 249.328125 C-114.3260695 235.40727974 -106.65480681 221.47140718 -97.9765625 210.171875 C-105.29420061 214.34247042 -112.74506915 218.73743233 -118.60546875 224.87890625 C-119.9765625 226.171875 -119.9765625 226.171875 -121.9765625 226.171875 C-121.9765625 226.831875 -121.9765625 227.491875 -121.9765625 228.171875 C-125.13100152 230.75901373 -128.56462709 232.94039676 -131.9765625 235.171875 C-132.9046875 235.790625 -133.8328125 236.409375 -134.7890625 237.046875 C-141.26150117 239.33126512 -148.14552338 239.53137203 -154.9140625 238.671875 C-158.99651481 236.67230652 -161.47728523 233.93756458 -163.9765625 230.171875 C-165.32990108 226.11185925 -165.51371036 222.41683519 -164.9765625 218.171875 C-163.21927058 215.11288536 -161.74996227 213.658012 -158.7890625 211.796875 C-154.67834843 210.88338298 -151.03422655 211.02119415 -146.9765625 212.171875 C-144.26556826 214.35389476 -143.13426492 215.75255323 -142.74609375 219.24609375 C-142.72834982 221.22276788 -142.8450708 223.19949943 -142.9765625 225.171875 C-142.9765625 225.501875 -142.9765625 225.831875 -142.9765625 226.171875 C-141.9865625 226.171875 -140.9965625 226.171875 -139.9765625 226.171875 C-139.7084375 225.57375 -139.4403125 224.975625 -139.1640625 224.359375 C-137.9765625 222.171875 -137.9765625 222.171875 -136.6015625 220.859375 C-134.76809595 219.10559333 -134.76809595 219.10559333 -133.3515625 216.171875 C-127.77483788 206.15481492 -119.1494569 198.06979351 -110.9765625 190.171875 C-120.93209932 193.21384458 -130.39710574 196.51117294 -139.58398438 201.45507812 C-147.84157925 205.85971251 -155.6949278 207.29483821 -164.9765625 206.171875 C-170.19480902 204.1800522 -173.90935571 200.83402932 -176.9765625 196.171875 C-178.33160769 192.10673943 -178.51332108 188.42242268 -177.9765625 184.171875 C-175.9715537 180.3692721 -174.54969988 178.55396659 -170.9765625 176.171875 C-166.71743263 175.55773081 -163.00415063 175.73460345 -159.0390625 177.421875 C-156.73754175 179.37468048 -155.76486783 180.25514528 -154.9765625 183.171875 C-155.10817067 186.65602807 -155.39889482 190.01653964 -156.9765625 193.171875 C-151.70442109 192.796 -149.01058217 189.94762685 -145.2890625 186.546875 C-123.33836088 167.171875 -123.33836088 167.171875 -113.9765625 167.171875 C-113.9765625 166.511875 -113.9765625 165.851875 -113.9765625 165.171875 C-117.12331491 165.45410716 -120.26871435 165.74943206 -123.4140625 166.046875 C-124.29255859 166.12550781 -125.17105469 166.20414063 -126.07617188 166.28515625 C-130.26882128 166.68740306 -134.28837284 167.19048359 -138.375 168.22265625 C-143.94524116 169.53953894 -149.46475484 169.50199809 -155.1640625 169.484375 C-156.21787109 169.50048828 -157.27167969 169.51660156 -158.35742188 169.53320312 C-166.52073144 169.53834699 -171.91618122 167.89556843 -177.9765625 162.171875 C-179.83156402 158.43601827 -180.27318076 155.32230331 -180.2890625 151.171875 C-180.30582031 150.16125 -180.32257813 149.150625 -180.33984375 148.109375 C-179.80707049 143.80135893 -178.0040768 141.1993893 -174.9765625 138.171875 C-169.42830541 137.39331603 -164.55907235 137.19802279 -159.7265625 140.171875 C-157.53381602 143.93086897 -157.19036863 146.97065152 -157.9765625 151.171875 C-159.4765625 154.671875 -159.4765625 154.671875 -160.9765625 157.171875 C-155.89128868 156.46057365 -151.38418565 155.64706546 -146.9765625 152.921875 C-136.19954218 146.48241428 -123.32339933 143.56508355 -110.9765625 142.171875 C-120.23678917 138.1670269 -129.40057892 137.01223073 -139.35546875 136.03833008 C-149.74721452 134.99483408 -161.69486497 133.64650683 -169.6640625 126.171875 C-173.92738709 120.64107554 -174.71807453 116.03380377 -173.9765625 109.171875 C-172.71135087 104.88421336 -171.60036772 102.73765183 -168.2890625 99.734375 C-163.55903564 97.50323025 -159.86829116 97.44894284 -154.7265625 98.734375 C-151.92933251 101.03209963 -150.27540405 103.80802132 -148.9765625 107.171875 C-149.0709922 111.13792249 -150.65694951 113.99314608 -152.9765625 117.171875 C-155.1640625 118.484375 -155.1640625 118.484375 -156.9765625 119.171875 C-153.05884346 120.47778135 -149.16334236 120.7288497 -145.11987305 119.69897461 C-135.69708182 117.38164846 -125.29620933 118.0409125 -115.6640625 118.109375 C-113.82038086 118.11614258 -113.82038086 118.11614258 -111.93945312 118.12304688 C-108.95176894 118.13467211 -105.96419395 118.15100941 -102.9765625 118.171875 C-110.75617816 112.46038077 -118.73170136 108.09194254 -127.9765625 105.171875 C-138.20980779 101.92620611 -148.45344285 97.50424251 -154.8515625 88.546875 C-157.2052772 83.57792174 -158.09957139 78.43714542 -156.2578125 73.08203125 C-153.90081801 67.97837786 -151.09397236 64.73057993 -145.9765625 62.171875 C-140.99546991 61.79594348 -137.91982386 61.9953589 -133.9765625 65.171875 C-131.61712575 68.10083097 -131.00821062 69.91869003 -130.5390625 73.671875 C-131.06297572 77.86318072 -131.84361498 79.36025543 -134.9765625 82.171875 C-138.7265625 83.484375 -138.7265625 83.484375 -141.9765625 84.171875 C-136.36206544 86.91826177 -131.2791987 87.88673814 -125.1015625 88.609375 C-118.18914294 89.50914465 -111.38960161 90.57580969 -104.6015625 92.171875 C-103.59633545 92.4028186 -103.59633545 92.4028186 -102.57080078 92.63842773 C-98.11851886 93.72474848 -94.13099552 95.28252045 -89.9765625 97.171875 C-90.7190625 96.429375 -91.4615625 95.686875 -92.2265625 94.921875 C-93.86201234 93.28642516 -95.48998407 91.6433528 -97.1015625 89.984375 C-99.04697968 87.99531274 -99.04697968 87.99531274 -101.9765625 86.171875 C-101.9765625 85.511875 -101.9765625 84.851875 -101.9765625 84.171875 C-102.49605469 83.92824219 -103.01554687 83.68460937 -103.55078125 83.43359375 C-116.38887249 76.75613244 -127.250218 69.3509085 -131.9765625 55.171875 C-132.68877847 48.28712064 -131.20842977 43.69463017 -126.9765625 38.171875 C-122.75720983 34.93376714 -118.50669479 34.6015928 -113.3203125 34.7421875 C-109.69698778 35.4064637 -108.10697506 37.2855096 -105.9765625 40.171875 C-104.36853955 43.38792089 -104.51463048 46.6839535 -104.9765625 50.171875 C-106.57083301 53.22756015 -107.75244671 54.72568012 -111.0234375 55.91796875 C-112.9874835 56.42290965 -114.98189134 56.80618529 -116.9765625 57.171875 C-113.74455061 60.99079452 -110.85922267 62.10133425 -106.1015625 63.484375 C-95.96535334 66.61048395 -86.60621305 71.20462152 -77.72265625 77.03125 C-75.5114458 78.47570962 -73.24625865 79.82169678 -70.9765625 81.171875 C-76.34080811 70.84615991 -83.01394803 63.30197864 -91.0625 55.02734375 C-97.74183928 47.86674204 -102.44964166 38.5119502 -102.3203125 28.5859375 C-101.53380917 23.06253908 -98.28890995 19.33509206 -94.2265625 15.734375 C-89.24046286 13.33721171 -84.61525577 12.70277397 -79.1640625 13.671875 C-75.96490542 15.86558271 -74.32056317 18.61422618 -72.9765625 22.171875 C-72.37826369 26.50954134 -72.44847778 28.36214509 -74.8515625 32.046875 C-77.92161745 35.11692995 -77.92161745 35.11692995 -80.8515625 35.26953125 C-81.5528125 35.25792969 -82.2540625 35.24632812 -82.9765625 35.234375 C-83.6778125 35.22535156 -84.3790625 35.21632813 -85.1015625 35.20703125 C-85.7203125 35.19542969 -86.3390625 35.18382812 -86.9765625 35.171875 C-87.6365625 35.171875 -88.2965625 35.171875 -88.9765625 35.171875 C-88.9765625 35.831875 -88.9765625 36.491875 -88.9765625 37.171875 C-87.4915625 37.666875 -87.4915625 37.666875 -85.9765625 38.171875 C-85.9765625 38.831875 -85.9765625 39.491875 -85.9765625 40.171875 C-85.3165625 40.171875 -84.6565625 40.171875 -83.9765625 40.171875 C-83.6465625 40.831875 -83.3165625 41.491875 -82.9765625 42.171875 C-80.98461696 43.1878243 -78.98322237 44.18530714 -76.9765625 45.171875 C-70.35907613 49.55810516 -63.44565572 54.37369594 -57.9765625 60.171875 C-57.9765625 60.831875 -57.9765625 61.491875 -57.9765625 62.171875 C-57.3784375 62.419375 -56.7803125 62.666875 -56.1640625 62.921875 C-53.68174163 64.34034407 -52.61328215 65.86452238 -50.9765625 68.171875 C-51.75078845 58.47469499 -55.11615632 50.40238258 -59.00390625 41.58984375 C-59.33688721 40.83493652 -59.66986816 40.0800293 -60.01293945 39.30224609 C-60.87162198 37.40387677 -61.78383719 35.52992942 -62.703125 33.66015625 C-64.27437615 29.35608485 -64.4559653 25.71261477 -64.4140625 21.171875 C-64.43404297 20.40359375 -64.45402344 19.6353125 -64.47460938 18.84375 C-64.46978337 13.16836851 -63.13680113 9.87781451 -59.9765625 5.171875 C-59.3165625 5.171875 -58.6565625 5.171875 -57.9765625 5.171875 C-57.9765625 4.511875 -57.9765625 3.851875 -57.9765625 3.171875 C-52.91459904 0.64089327 -48.66274828 -0.85386832 -42.9765625 0.171875 C-39.01443093 1.75672763 -36.38150662 3.56445882 -33.9765625 7.171875 C-33.29912946 10.91558393 -33.23149613 14.56532564 -34.8515625 18.05859375 C-37.03971281 21.03131111 -38.91487888 22.15280915 -42.4140625 23.234375 C-46.40876197 23.16429255 -48.59536268 22.23358221 -51.9765625 20.171875 C-50.76374752 25.68467039 -48.85032695 29.0320553 -44.9765625 33.171875 C-40.38990683 38.1568455 -37.10582575 43.17263031 -33.9765625 49.171875 C-33.03015352 50.92807744 -32.08366958 52.68424126 -31.13452148 54.43896484 C-29.74288917 57.01357215 -28.35980185 59.59275148 -26.9765625 62.171875 C-25.4822223 59.18319461 -25.83118277 56.13495306 -25.8515625 52.859375 C-25.852771 52.11751953 -25.85397949 51.37566406 -25.85522461 50.61132812 C-25.90236063 43.58588626 -26.25216389 36.57911715 -26.70849609 29.5690918 C-27.28059511 19.75122644 -26.76084088 11.95992698 -20.6015625 3.921875 C-15.45978187 -1.46475233 -6.97166089 -2.92093302 0 0 Z M-18.9765625 80.171875 C-16.37552534 82.92591434 -14.00983417 85.15099866 -10.7890625 87.171875 C-7.74084519 89.3394962 -6.96040222 90.630052 -5.9765625 94.171875 C-5.44289063 93.91792969 -4.90921875 93.66398437 -4.359375 93.40234375 C1.31366441 90.78175288 7.00225331 88.83115749 13.0234375 87.171875 C13.0234375 86.511875 13.0234375 85.851875 13.0234375 85.171875 C2.09176383 80.35566632 -7.12767878 80.02209978 -18.9765625 80.171875 Z M-53.9765625 88.171875 C-51.39365681 90.75478069 -49.74810342 90.67691497 -46.1640625 91.171875 C-42.13103479 91.7329919 -38.70524981 92.51774384 -34.9765625 94.171875 C-34.2959375 93.140625 -33.6153125 92.109375 -32.9140625 91.046875 C-30.45039856 87.56376391 -27.65604937 84.98664705 -24.33203125 82.3359375 C-23.66107422 81.75972656 -23.66107422 81.75972656 -22.9765625 81.171875 C-22.9765625 80.841875 -22.9765625 80.511875 -22.9765625 80.171875 C-34.23966174 79.97146398 -43.81100198 83.80932676 -53.9765625 88.171875 Z M-21.9765625 85.171875 C-28.26365875 89.90077551 -28.26365875 89.90077551 -32.1015625 96.484375 C-32.09387201 99.27296167 -32.09387201 99.27296167 -30.9765625 102.171875 C-26.83044404 101.74205183 -26.83044404 101.74205183 -23.1640625 99.921875 C-21.67249588 97.72377682 -21.32940925 95.78294096 -20.9765625 93.171875 C-20.3165625 93.171875 -19.6565625 93.171875 -18.9765625 93.171875 C-18.9146875 93.935 -18.8528125 94.698125 -18.7890625 95.484375 C-18.20314441 98.35195276 -18.20314441 98.35195276 -15.6640625 99.984375 C-12.85646557 101.44131757 -12.85646557 101.44131757 -8.9765625 101.171875 C-8.30482075 97.96955401 -8.30482075 97.96955401 -8.9765625 94.171875 C-12.57178359 89.79812671 -16.6748402 87.07529544 -21.9765625 85.171875 Z M17.0234375 87.171875 C17.48352937 91.7727937 17.90735005 95.07195557 20.0234375 99.171875 C20.3534375 101.481875 20.6834375 103.791875 21.0234375 106.171875 C27.9534375 106.171875 34.8834375 106.171875 42.0234375 106.171875 C34.75934334 97.69709848 27.75504285 90.74907678 17.0234375 87.171875 Z M-71.2265625 100.671875 C-71.76796875 101.15785156 -72.309375 101.64382813 -72.8671875 102.14453125 C-75.38368722 104.45341975 -76.8791927 105.87976559 -77.9765625 109.171875 C-69.5615625 108.181875 -69.5615625 108.181875 -60.9765625 107.171875 C-59.9865625 102.221875 -58.9965625 97.271875 -57.9765625 92.171875 C-63.19537917 92.171875 -67.59641621 97.31754865 -71.2265625 100.671875 Z M-53.9765625 93.171875 C-54.68021852 94.7271662 -55.36385628 96.29152327 -56.0390625 97.859375 C-56.42191406 98.72949219 -56.80476563 99.59960938 -57.19921875 100.49609375 C-58.09026802 103.56327341 -57.98047038 105.16015135 -56.9765625 108.171875 C-54.51838295 110.96432593 -54.51838295 110.96432593 -51.9765625 113.171875 C-48.84699198 110.15556919 -48.84699198 110.15556919 -47.93359375 106.05859375 C-48.1967397 104.08324485 -48.57937936 102.12469209 -48.9765625 100.171875 C-48.54085937 100.54441406 -48.10515625 100.91695313 -47.65625 101.30078125 C-43.63738958 104.52924328 -43.63738958 104.52924328 -38.6015625 105.109375 C-35.83335564 104.46204908 -35.83335564 104.46204908 -34.9765625 102.171875 C-37.86091746 96.98003608 -40.07016372 94.94379463 -45.9765625 93.171875 C-48.70110725 92.95715606 -51.23590058 93.02762964 -53.9765625 93.171875 Z M-0.9140625 95.046875 C-3.58628892 97.80007798 -4.9765625 99.25184771 -4.9765625 103.171875 C-0.99002991 103.97845319 -0.99002991 103.97845319 3.0234375 104.171875 C5.37865975 102.4006132 5.37865975 102.4006132 7.0234375 100.171875 C8.0134375 99.841875 9.0034375 99.511875 10.0234375 99.171875 C9.6934375 99.831875 9.3634375 100.491875 9.0234375 101.171875 C8.52248727 104.04493728 8.52248727 104.04493728 9.0234375 107.171875 C11.39844541 110.04828116 11.39844541 110.04828116 14.0234375 112.171875 C17.21430839 108.18506956 17.21430839 108.18506956 18.0234375 103.296875 C16.76046264 99.35007858 15.00481902 95.80287183 13.0234375 92.171875 C7.91847816 92.171875 3.46529221 92.25154221 -0.9140625 95.046875 Z M21.2734375 110.171875 C20.2009375 110.831875 19.1284375 111.491875 18.0234375 112.171875 C18.0234375 113.161875 18.0234375 114.151875 18.0234375 115.171875 C20.94639684 117.57901798 22.39956299 118.22080633 26.2109375 117.921875 C28.94961813 117.29280674 28.94961813 117.29280674 31.0234375 116.171875 C30.6728125 116.8525 30.3221875 117.533125 29.9609375 118.234375 C28.79723147 121.8806539 29.29498648 124.45677478 30.0234375 128.171875 C33.10487866 128.4226677 33.10487866 128.4226677 35.69140625 126.625 C38.3449295 124.30916608 38.3449295 124.30916608 38.51171875 120.71875 C38.45371094 119.46578125 38.39570313 118.2128125 38.3359375 116.921875 C38.29082031 115.65859375 38.24570312 114.3953125 38.19921875 113.09375 C38.14121094 112.12953125 38.08320313 111.1653125 38.0234375 110.171875 C36.60805033 109.83314987 35.19105787 109.50112876 33.7734375 109.171875 C32.98453125 108.98625 32.195625 108.800625 31.3828125 108.609375 C27.29930845 107.85216895 24.75016335 108.0323514 21.2734375 110.171875 Z M44.0234375 108.171875 C42.13030896 111.95813208 42.01675047 114.84771679 42.15234375 119.03515625 C41.92911771 122.73529704 40.47435158 125.78640882 39.0234375 129.171875 C39.5803125 129.31882812 40.1371875 129.46578125 40.7109375 129.6171875 C46.12023321 131.20708185 49.92550531 133.28246173 54.19921875 136.96484375 C56.21485058 138.53974974 56.21485058 138.53974974 60.0234375 138.171875 C57.11259224 127.04913294 52.5994513 116.13531639 44.0234375 108.171875 Z M-77.9765625 113.171875 C-78.26266011 121.94751037 -78.26266011 121.94751037 -74.7265625 129.546875 C-72.10330045 131.44628407 -72.10330045 131.44628407 -69.1640625 130.984375 C-68.4421875 130.71625 -67.7203125 130.448125 -66.9765625 130.171875 C-67.44456961 126.11581335 -67.85609458 122.70598821 -69.9765625 119.171875 C-68.7596875 119.39875 -67.5428125 119.625625 -66.2890625 119.859375 C-63.00035559 120.29163843 -62.10309787 120.23250653 -58.9765625 118.734375 C-58.3165625 118.21875 -57.6565625 117.703125 -56.9765625 117.171875 C-57.98573073 114.5970538 -57.98573073 114.5970538 -59.9765625 112.171875 C-65.45703656 110.63734226 -72.74991291 110.5585502 -77.9765625 113.171875 Z M-82.9765625 115.171875 C-88.97338132 122.53719862 -92.46699895 129.812581 -93.9765625 139.171875 C-89.96900127 137.83602126 -86.97905337 135.83024161 -83.625 133.34765625 C-81.82788166 132.0658254 -79.99672864 131.0607481 -77.9765625 130.171875 C-78.28335938 129.63046875 -78.59015625 129.0890625 -78.90625 128.53125 C-80.13284461 125.82736992 -80.61400026 123.34724842 -81.1015625 120.421875 C-81.26914063 119.43703125 -81.43671875 118.4521875 -81.609375 117.4375 C-81.73054688 116.68984375 -81.85171875 115.9421875 -81.9765625 115.171875 C-82.3065625 115.171875 -82.6365625 115.171875 -82.9765625 115.171875 Z M33.0234375 134.171875 C33.37950441 136.75336008 33.85671943 137.99233247 35.6484375 139.921875 C38.85477873 141.60942302 41.45692264 141.37763547 45.0234375 141.171875 C43.16577445 143.02953805 41.3082541 144.80389754 39.3359375 146.546875 C36.77606017 148.94628216 36.77606017 148.94628216 36.7109375 151.984375 C36.865625 153.0671875 36.865625 153.0671875 37.0234375 154.171875 C41.07415667 153.9335974 43.45353205 153.6092443 46.7109375 151.109375 C49.41740786 147.67142616 51.25404209 144.15548588 53.0234375 140.171875 C46.86034089 134.67958213 46.86034089 134.67958213 39.3984375 131.796875 C36.91695254 132.18868841 35.17622242 132.8961506 33.0234375 134.171875 Z M-80.5390625 135.671875 C-83.87520495 137.93622508 -86.94915263 140.51366146 -89.9765625 143.171875 C-88.88010192 144.96826796 -87.77411102 146.75884654 -86.6640625 148.546875 C-86.04917969 149.54460937 -85.43429688 150.54234375 -84.80078125 151.5703125 C-83.07218475 154.37014312 -83.07218475 154.37014312 -79.9765625 156.171875 C-76.85134417 156.33886732 -76.85134417 156.33886732 -73.9765625 156.171875 C-73.93783563 153.83648593 -73.93783563 153.83648593 -74.9765625 151.171875 C-76.69095035 149.68916118 -78.46528969 148.49146671 -80.3828125 147.28515625 C-81.9765625 146.171875 -81.9765625 146.171875 -82.9765625 144.171875 C-81.9246875 144.23375 -80.8728125 144.295625 -79.7890625 144.359375 C-75.77441849 144.16193349 -74.0482397 143.70149152 -70.9765625 141.171875 C-70.09833938 139.08653867 -70.09833938 139.08653867 -69.9765625 137.171875 C-75.04800244 134.1432894 -75.04800244 134.1432894 -80.5390625 135.671875 Z M-36.56640625 143.3671875 C-41.0135984 149.05860792 -40.59413448 156.26456995 -39.9765625 163.171875 C-38.89362383 166.59198772 -38.89362383 166.59198772 -36.9765625 169.171875 C-36.2340625 170.47125 -36.2340625 170.47125 -35.4765625 171.796875 C-30.82534811 176.21552867 -24.17127168 178.3053719 -17.7890625 178.671875 C-9.9063551 177.63807731 -5.46342884 174.17484143 -0.421875 168.171875 C3.53426443 162.69743341 3.89562232 157.81666453 3.0234375 151.171875 C0.8346662 145.05646679 -2.63221314 140.77113069 -7.9765625 137.171875 C-18.33528315 132.33780536 -29.07272298 135.1394988 -36.56640625 143.3671875 Z M57.9609375 141.984375 C53.75621456 146.23856527 50.46217785 151.29961509 47.0234375 156.171875 C47.41015625 156.60757813 47.796875 157.04328125 48.1953125 157.4921875 C50.74834092 160.4117398 53.02824435 163.1795951 55.0859375 166.484375 C57.21411024 169.43635654 58.56964054 170.21248696 62.0234375 171.171875 C63.86540192 167.48794617 63.20818315 163.10127282 63.2109375 159.046875 C63.22930664 157.65855469 63.22930664 157.65855469 63.24804688 156.2421875 C63.26014908 150.52994495 62.65394379 145.64986056 61.0234375 140.171875 C59.69100909 140.0618559 59.69100909 140.0618559 57.9609375 141.984375 Z M-95.9765625 144.171875 C-96.02595912 148.12284478 -96.06228005 152.0736953 -96.08642578 156.02490234 C-96.10144357 158.0309886 -96.12685231 160.03698824 -96.15234375 162.04296875 C-96.15878906 163.29980469 -96.16523438 164.55664062 -96.171875 165.8515625 C-96.18234863 167.01413574 -96.19282227 168.17670898 -96.20361328 169.37451172 C-96.26918247 172.31097779 -96.26918247 172.31097779 -93.9765625 174.171875 C-91.76978188 171.58461496 -90.01358767 169.24914491 -88.5390625 166.171875 C-86.8029299 162.83850041 -84.72975229 160.70183319 -81.9765625 158.171875 C-82.73710937 157.78257812 -83.49765625 157.39328125 -84.28125 156.9921875 C-87.31898997 154.94061239 -88.39151258 153.25205054 -90.1015625 150.046875 C-92.06659075 146.01858097 -92.06659075 146.01858097 -95.9765625 144.171875 Z M38.0234375 158.171875 C37.0422452 161.29385049 36.86586436 162.77330765 38.0859375 165.859375 C40.47797249 168.7143845 42.45595143 169.29982285 46.0234375 170.171875 C45.48074219 170.35363281 44.93804687 170.53539062 44.37890625 170.72265625 C43.66347656 170.97402344 42.94804687 171.22539063 42.2109375 171.484375 C41.14939453 171.84982422 41.14939453 171.84982422 40.06640625 172.22265625 C37.82517101 173.26399499 36.54473996 174.22825514 35.0234375 176.171875 C35.0234375 177.161875 35.0234375 178.151875 35.0234375 179.171875 C37.88789001 180.60410125 39.839212 180.4787883 43.0234375 180.171875 C46.08630679 178.46963305 46.08630679 178.46963305 48.8984375 176.171875 C49.86523438 175.429375 50.83203125 174.686875 51.828125 173.921875 C52.55257812 173.344375 53.27703125 172.766875 54.0234375 172.171875 C50.31492859 164.56212603 50.31492859 164.56212603 44.0234375 159.171875 C40.87225425 158.45142133 40.87225425 158.45142133 38.0234375 158.171875 Z M-82.9765625 163.171875 C-84.66937343 165.94900808 -84.66937343 165.94900808 -86.1640625 169.234375 C-86.69386719 170.33910156 -87.22367187 171.44382812 -87.76953125 172.58203125 C-88.36701172 173.86400391 -88.36701172 173.86400391 -88.9765625 175.171875 C-88.1721875 175.44 -87.3678125 175.708125 -86.5390625 175.984375 C-85.6934375 176.37625 -84.8478125 176.768125 -83.9765625 177.171875 C-83.6465625 178.161875 -83.3165625 179.151875 -82.9765625 180.171875 C-79.77276233 182.30774178 -78.95716283 182.40319675 -75.2890625 182.296875 C-74.48082031 182.27882813 -73.67257813 182.26078125 -72.83984375 182.2421875 C-72.22496094 182.21898437 -71.61007813 182.19578125 -70.9765625 182.171875 C-70.6465625 180.851875 -70.3165625 179.531875 -69.9765625 178.171875 C-73.66828845 174.63397097 -77.07046845 174.58071617 -81.9765625 174.171875 C-81.3990625 173.72457031 -80.8215625 173.27726563 -80.2265625 172.81640625 C-79.4840625 172.21183594 -78.7415625 171.60726562 -77.9765625 170.984375 C-77.2340625 170.39269531 -76.4915625 169.80101562 -75.7265625 169.19140625 C-73.71694129 167.26907001 -73.71694129 167.26907001 -73.7265625 164.43359375 C-73.8503125 163.31404297 -73.8503125 163.31404297 -73.9765625 162.171875 C-77.31908974 162.09759662 -79.7801539 162.10640547 -82.9765625 163.171875 Z M52.0234375 178.171875 C48.43384502 180.66261264 45.1515578 182.71489136 41.0234375 184.171875 C41.34441406 184.72101563 41.66539062 185.27015625 41.99609375 185.8359375 C43.17937556 188.52644139 43.32562846 190.61927932 43.4609375 193.546875 C43.79699021 198.19560419 44.57409783 201.23163292 47.0234375 205.171875 C54.06678068 196.82420901 61.0234375 185.4911165 61.0234375 174.171875 C56.96038377 174.171875 55.31885732 175.8456963 52.0234375 178.171875 Z M-92.9765625 179.171875 C-92.0157235 188.54005521 -86.87333332 196.35336425 -81.9765625 204.171875 C-81.3165625 203.841875 -80.6565625 203.511875 -79.9765625 203.171875 C-79.31833136 200.26688031 -79.31833136 200.26688031 -78.9140625 196.859375 C-77.92795353 189.58172781 -77.92795353 189.58172781 -76.9765625 186.171875 C-78.0078125 185.759375 -79.0390625 185.346875 -80.1015625 184.921875 C-82.77060158 183.79266616 -84.776264 182.63361437 -87.2265625 180.984375 C-89.84511193 178.89671832 -89.84511193 178.89671832 -92.9765625 179.171875 Z M31.0234375 184.171875 C30.94189817 185.75434207 30.88400193 187.33803773 30.8359375 188.921875 C30.80113281 189.80359375 30.76632812 190.6853125 30.73046875 191.59375 C31.07420066 194.61859083 32.02571209 195.92771102 34.0234375 198.171875 C33.3015625 197.841875 32.5796875 197.511875 31.8359375 197.171875 C28.89184764 196.12508749 27.10707936 195.69746856 24.0234375 196.171875 C21.70966603 198.06771609 21.70966603 198.06771609 20.0234375 200.171875 C22.79443819 202.85890597 24.38739629 204.09848563 28.2734375 204.546875 C32.63579673 204.11063908 36.7794866 203.2497038 41.0234375 202.171875 C41.33721929 196.21002102 40.91370234 192.43628596 38.0234375 187.171875 C35.43135871 184.66079867 34.67470038 184.171875 31.0234375 184.171875 Z M-73.9765625 188.171875 C-75.86569659 191.87303567 -76.20090042 194.86185135 -76.1015625 198.984375 C-76.08351563 199.96019531 -76.06546875 200.93601562 -76.046875 201.94140625 C-76.02367187 202.67746094 -76.00046875 203.41351562 -75.9765625 204.171875 C-73.75154148 204.59038369 -71.52123282 204.98084663 -69.2890625 205.359375 C-68.04769531 205.57980469 -66.80632812 205.80023437 -65.52734375 206.02734375 C-61.51755822 206.19055834 -60.06795623 205.65056006 -56.9765625 203.171875 C-56.3165625 202.181875 -55.6565625 201.191875 -54.9765625 200.171875 C-57.60155823 198.45553164 -58.79773987 198.15324764 -61.9765625 198.484375 C-65.48752735 199.28416877 -65.48752735 199.28416877 -68.9765625 200.171875 C-68.3165625 199.305625 -67.6565625 198.439375 -66.9765625 197.546875 C-64.82683208 193.91920491 -64.42731529 192.29122911 -64.9765625 188.171875 C-65.6365625 187.181875 -66.2965625 186.191875 -66.9765625 185.171875 C-69.99984324 185.171875 -71.55807229 186.4184696 -73.9765625 188.171875 Z M-50.9765625 203.171875 C-54.18458375 207.15366784 -54.18458375 207.15366784 -54.9140625 212.046875 C-53.77541419 215.84236936 -52.43753433 219.48768518 -50.9765625 223.171875 C-49.05866537 222.88841222 -47.14227067 222.5947722 -45.2265625 222.296875 C-43.62554687 222.05324219 -43.62554687 222.05324219 -41.9921875 221.8046875 C-37.42414077 220.84610775 -35.59633663 220.10153619 -32.9765625 216.171875 C-32.9765625 214.851875 -32.9765625 213.531875 -32.9765625 212.171875 C-37.57239364 211.67557721 -37.57239364 211.67557721 -41.77734375 213.28515625 C-43.23255705 214.51809353 -44.61135407 215.83996433 -45.9765625 217.171875 C-45.7496875 216.12 -45.5228125 215.068125 -45.2890625 213.984375 C-44.94061411 209.73330465 -45.36229009 208.43971552 -47.9765625 205.171875 C-48.9665625 204.511875 -49.9565625 203.851875 -50.9765625 203.171875 Z M14.0234375 203.171875 C12.10572122 205.22526162 12.10572122 205.22526162 11.0234375 208.171875 C11.24591585 211.90280878 11.24591585 211.90280878 12.0234375 215.171875 C11.1778125 214.511875 10.3321875 213.851875 9.4609375 213.171875 C5.58906803 210.91915095 3.42064953 210.82009804 -0.9765625 211.171875 C-2.30496953 214.1121026 -2.30496953 214.1121026 -1.01953125 216.74609375 C1.75737139 220.04333379 4.63912295 220.38747968 8.7109375 220.984375 C9.41283203 221.10490234 10.11472656 221.22542969 10.83789062 221.34960938 C12.56322903 221.64303427 14.2930177 221.91007717 16.0234375 222.171875 C16.72647972 220.44896895 17.41027241 218.71820034 18.0859375 216.984375 C18.46878906 216.02144531 18.85164063 215.05851563 19.24609375 214.06640625 C20.09636993 210.90030248 20.01668718 209.26602975 19.0234375 206.171875 C18.3634375 205.181875 17.7034375 204.191875 17.0234375 203.171875 C16.0334375 203.171875 15.0434375 203.171875 14.0234375 203.171875 Z M-76.9765625 207.171875 C-77.30808012 210.28460882 -77.30808012 210.28460882 -75.0390625 212.359375 C-74.02658038 213.30588803 -73.00427753 214.24192405 -71.9765625 215.171875 C-71.28691406 215.81898438 -70.59726563 216.46609375 -69.88671875 217.1328125 C-62.88808432 224.07824979 -62.88808432 224.07824979 -53.9765625 227.171875 C-54.18152344 226.63820313 -54.38648438 226.10453125 -54.59765625 225.5546875 C-56.6937195 219.75791928 -57.60466751 214.31455434 -57.9765625 208.171875 C-59.15412109 208.18927734 -59.15412109 208.18927734 -60.35546875 208.20703125 C-66.01376025 208.25563007 -71.40535128 208.18482249 -76.9765625 207.171875 Z M32.8984375 206.671875 C25.12816723 207.171875 25.12816723 207.171875 24.0234375 207.171875 C23.90226563 207.77515625 23.78109375 208.3784375 23.65625 209 C23.48867188 209.79921875 23.32109375 210.5984375 23.1484375 211.421875 C22.90480469 212.60523438 22.90480469 212.60523438 22.65625 213.8125 C22.0234375 216.171875 22.0234375 216.171875 20.9609375 218.203125 C19.88744351 220.45746239 19.81584319 221.94404576 19.8984375 224.421875 C19.9396875 225.659375 19.9809375 226.896875 20.0234375 228.171875 C21.29552372 227.54942901 22.56605632 226.92380733 23.8359375 226.296875 C24.54363281 225.94882812 25.25132812 225.60078125 25.98046875 225.2421875 C28.23590168 224.1062264 28.23590168 224.1062264 31.0234375 222.171875 C31.0234375 221.511875 31.0234375 220.851875 31.0234375 220.171875 C32.10625 219.8315625 32.10625 219.8315625 33.2109375 219.484375 C38.38056196 217.07188358 41.59710231 212.61342062 45.0234375 208.171875 C44.6934375 207.511875 44.3634375 206.851875 44.0234375 206.171875 C40.3029621 206.171875 36.60916096 206.43058015 32.8984375 206.671875 Z M-27.9765625 213.171875 C-28.9257571 216.38513757 -28.9257571 216.38513757 -28.9765625 220.171875 C-26.28324428 224.29106757 -23.43259408 227.0611232 -18.9765625 229.171875 C-15.25143736 229.171875 -14.25581115 228.17337721 -11.3515625 225.921875 C-10.55492187 225.31859375 -9.75828125 224.7153125 -8.9375 224.09375 C-6.83511579 222.03324595 -6.27327954 221.05759369 -5.9765625 218.171875 C-6.36223381 215.49037507 -6.36223381 215.49037507 -6.9765625 213.171875 C-9.38533507 213.28529034 -9.38533507 213.28529034 -11.9765625 214.171875 C-14.4405873 217.33990689 -15.41279468 220.22550026 -15.9765625 224.171875 C-16.6365625 224.171875 -17.2965625 224.171875 -17.9765625 224.171875 C-18.2034375 222.91375 -18.4303125 221.655625 -18.6640625 220.359375 C-19.46435558 217.12962078 -19.73938207 216.36648458 -22.4140625 214.171875 C-24.98389962 212.99010376 -24.98389962 212.99010376 -27.9765625 213.171875 Z M-32.9765625 221.171875 C-33.66105469 221.63207031 -34.34554687 222.09226562 -35.05078125 222.56640625 C-38.29668396 224.34753577 -41.17441646 225.0926319 -44.7890625 225.859375 C-45.95050781 226.11074219 -47.11195313 226.36210938 -48.30859375 226.62109375 C-49.18902344 226.80285156 -50.06945312 226.98460937 -50.9765625 227.171875 C-50.9765625 228.161875 -50.9765625 229.151875 -50.9765625 230.171875 C-40.45481326 234.25215965 -30.36950351 237.74152205 -18.9765625 237.171875 C-20.0193591 233.51742638 -20.0193591 233.51742638 -22.7890625 231.171875 C-23.5109375 230.841875 -24.2328125 230.511875 -24.9765625 230.171875 C-27.98632808 227.38233617 -30.61511986 224.52760928 -32.9765625 221.171875 Z M-2.9765625 221.171875 C-3.21375 221.76097656 -3.4509375 222.35007812 -3.6953125 222.95703125 C-5.66653289 226.3645982 -8.70222753 228.06759193 -11.8828125 230.29296875 C-14.25739607 232.42389169 -15.02613902 234.16047885 -15.9765625 237.171875 C-8.51622265 237.58050871 -2.22732719 236.51854295 4.8984375 234.359375 C5.82140625 234.09833984 6.744375 233.83730469 7.6953125 233.56835938 C12.1096298 232.27285321 15.42268236 231.1183679 19.0234375 228.171875 C13.71192503 225.63683496 8.4198853 224.17154415 2.6953125 222.8203125 C0.0234375 222.171875 0.0234375 222.171875 -2.9765625 221.171875 Z " fill="#132967" transform="translate(292.9765625,386.828125)"/>
<path d="M0 0 C3.04221065 -0.08132642 6.0822238 -0.14065374 9.125 -0.1875 C9.9809375 -0.21263672 10.836875 -0.23777344 11.71875 -0.26367188 C17.67051869 -0.33234613 22.03934169 0.28963889 26.6171875 4.48046875 C30.82007301 10.1843848 33.82444709 16.39259174 36.91015625 22.7421875 C38.95340402 26.94043068 41.10985933 31.07101389 43.3125 35.1875 C43.63782715 35.79859619 43.9631543 36.40969238 44.29833984 37.03930664 C46.10908867 40.4176466 47.99907815 43.73080154 50 47 C53.34220249 40.69959276 56.10189929 34.32572055 58.609375 27.65234375 C60.22440619 23.41061857 61.9098588 19.20205077 63.625 15 C64.0588501 13.92286743 64.0588501 13.92286743 64.50146484 12.82397461 C68.57653195 2.88207482 68.57653195 2.88207482 72.10546875 0.6953125 C76.2011585 -0.2885374 80.11812325 -0.21107245 84.3125 -0.125 C85.14845703 -0.11597656 85.98441406 -0.10695313 86.84570312 -0.09765625 C88.89725969 -0.07420989 90.94866777 -0.03834266 93 0 C93 0.99 93 1.98 93 3 C91.02 3.33 89.04 3.66 87 4 C87 25.12 87 46.24 87 68 C88.98 68.33 90.96 68.66 93 69 C93 69.99 93 70.98 93 72 C82.77 72 72.54 72 62 72 C62 71.01 62 70.02 62 69 C63.98 68.34 65.96 67.68 68 67 C68 51.82 68 36.64 68 21 C64.9398146 27.1203708 62.43280764 32.36931239 60.23046875 38.6796875 C58.30405659 43.87794255 56.1071231 48.95910638 53.93798828 54.05981445 C51.77883176 59.13907492 49.67824186 64.23307714 47.69140625 69.3828125 C47 71 47 71 46 72 C44.00041636 72.04080783 41.99954746 72.04254356 40 72 C35.23933813 63.21957396 30.56208027 54.39722407 25.91796875 45.5546875 C21.61693866 37.36718444 17.30743861 29.18413335 13 21 C13 35.85 13 50.7 13 66 C15.31 66.99 17.62 67.98 20 69 C20 69.99 20 70.98 20 72 C13.07 72 6.14 72 -1 72 C-1 71.01 -1 70.02 -1 69 C1.31 68.01 3.62 67.02 6 66 C6 45.87 6 25.74 6 5 C4.02 4.34 2.04 3.68 0 3 C0 2.01 0 1.02 0 0 Z " fill="#132967" transform="translate(503,453)"/>
<path d="M0 0 C10.23 0 20.46 0 31 0 C31 0.99 31 1.98 31 3 C29.02 3.33 27.04 3.66 25 4 C25 13.9 25 23.8 25 34 C31.6 34 38.2 34 45 34 C45 24.1 45 14.2 45 4 C43.02 3.67 41.04 3.34 39 3 C39 2.01 39 1.02 39 0 C49.23 0 59.46 0 70 0 C70 0.99 70 1.98 70 3 C68.02 3.33 66.04 3.66 64 4 C64 25.12 64 46.24 64 68 C65.98 68.33 67.96 68.66 70 69 C70 69.99 70 70.98 70 72 C59.77 72 49.54 72 39 72 C39 71.01 39 70.02 39 69 C41.97 68.505 41.97 68.505 45 68 C45 58.43 45 48.86 45 39 C38.4 39 31.8 39 25 39 C25 48.57 25 58.14 25 68 C26.98 68.33 28.96 68.66 31 69 C31 69.99 31 70.98 31 72 C20.77 72 10.54 72 0 72 C0 71.01 0 70.02 0 69 C2.97 68.505 2.97 68.505 6 68 C6 46.88 6 25.76 6 4 C3.03 3.505 3.03 3.505 0 3 C0 2.01 0 1.02 0 0 Z " fill="#132A68" transform="translate(674,453)"/>
<path d="M0 0 C18.15 0 36.3 0 55 0 C55 0.99 55 1.98 55 3 C53.02 3.33 51.04 3.66 49 4 C49 25.12 49 46.24 49 68 C52.3 68 55.6 68 59 68 C59 74.6 59 81.2 59 88 C53 88 53 88 51.20703125 86.78515625 C50.74683594 86.21667969 50.28664063 85.64820313 49.8125 85.0625 C49.34457031 84.51722656 48.87664063 83.97195313 48.39453125 83.41015625 C46.35334842 79.88239769 45.28885639 75.86656916 44 72 C29.81 72 15.62 72 1 72 C0.34 73.98 -0.32 75.96 -1 78 C-2.4375 80.265625 -2.4375 80.265625 -4 82.25 C-4.515625 82.91515625 -5.03125 83.5803125 -5.5625 84.265625 C-7 86 -7 86 -9 88 C-10.65 88 -12.3 88 -14 88 C-14 81.4 -14 74.8 -14 68 C-9.545 67.505 -9.545 67.505 -5 67 C1.15658266 62.07473387 3.21984879 53.56921902 4.28329468 45.97766113 C4.79409853 40.91349716 4.99165153 35.8342928 5.1875 30.75 C5.28898645 28.50906288 5.39523318 26.26839012 5.50222778 24.02770996 C5.57013634 22.60144961 5.63616839 21.17509847 5.70016479 19.74865723 C5.93042248 14.79524706 6.36048212 9.91594612 7 5 C4.69 4.34 2.38 3.68 0 3 C0 2.01 0 1.02 0 0 Z M12 4 C10.80824089 6.38351823 10.79535155 8.02798654 10.67456055 10.68994141 C10.62748459 11.66500641 10.58040863 12.64007141 10.53190613 13.64468384 C10.48399429 14.7029538 10.43608246 15.76122375 10.38671875 16.8515625 C10.27228912 19.08728092 10.15702801 21.3229569 10.04101562 23.55859375 C9.86188616 27.08678262 9.68795599 30.61490389 9.52856445 34.14404297 C9.37251134 37.5475781 9.19386728 40.94933691 9.01171875 44.3515625 C8.96987961 45.39768707 8.92804047 46.44381165 8.88493347 47.52163696 C8.51925865 53.95109084 7.29391934 58.48932875 4 64 C3.34 65.32 2.68 66.64 2 68 C11.24 68 20.48 68 30 68 C30 46.88 30 25.76 30 4 C24.06 4 18.12 4 12 4 Z " fill="#132968" transform="translate(760,453)"/>
<path d="M0 0 C18.15 0 36.3 0 55 0 C55 0.99 55 1.98 55 3 C53.35 3.66 51.7 4.32 50 5 C49.67 25.79 49.34 46.58 49 68 C51.97 68 54.94 68 58 68 C58 74.6 58 81.2 58 88 C56.35 88 54.7 88 53 88 C52.34 86.68 51.68 85.36 51 84 C50.34 84 49.68 84 49 84 C46.70182527 80.14499723 45.09690688 77.38762753 44 73 C22.22 72.505 22.22 72.505 0 72 C0 73.65 0 75.3 0 77 C-1.4609375 79.38671875 -1.4609375 79.38671875 -3.375 81.6875 C-4.00148438 82.45449219 -4.62796875 83.22148438 -5.2734375 84.01171875 C-6.46638751 85.38550055 -7.71345304 86.71345304 -9 88 C-10.65 88 -12.3 88 -14 88 C-14 81.4 -14 74.8 -14 68 C-9.545 67.505 -9.545 67.505 -5 67 C0.12333357 63.81522508 1.95172593 56.71780676 3.5276947 51.128479 C4.02230636 48.89947473 4.23837719 46.78455378 4.38891602 44.50683594 C4.4788961 43.18591949 4.4788961 43.18591949 4.57069397 41.83831787 C4.66138405 40.42561615 4.66138405 40.42561615 4.75390625 38.984375 C4.81907944 38.01340881 4.88425262 37.04244263 4.95140076 36.04205322 C5.15850259 32.94491752 5.36056375 29.84747638 5.5625 26.75 C5.70214179 24.6484154 5.84211182 22.54685259 5.98242188 20.4453125 C6.32542214 15.2971199 6.66390245 10.14864766 7 5 C4.69 4.34 2.38 3.68 0 3 C0 2.01 0 1.02 0 0 Z M12 4 C11.21272773 8.72363364 10.7650686 13.21204901 10.5703125 17.96875 C10.49657179 19.52606438 10.42233657 21.0833554 10.34765625 22.640625 C10.2351742 25.05777163 10.12604036 27.47488795 10.02587891 29.89257812 C8.93979091 55.64081058 8.93979091 55.64081058 3 65 C2.67 65.99 2.34 66.98 2 68 C11.57 68 21.14 68 31 68 C31 46.88 31 25.76 31 4 C24.73 4 18.46 4 12 4 Z " fill="#142967" transform="translate(508,560)"/>
<path d="M0 0 C17.82 0 35.64 0 54 0 C54 0.99 54 1.98 54 3 C52.02 3.66 50.04 4.32 48 5 C48 25.46 48 45.92 48 67 C49.98 67.66 51.96 68.32 54 69 C54 69.99 54 70.98 54 72 C43.77 72 33.54 72 23 72 C23 71.01 23 70.02 23 69 C25.97 68.505 25.97 68.505 29 68 C29 46.88 29 25.76 29 4 C23.06 4 17.12 4 11 4 C11.01675781 6.2378125 11.03351562 8.475625 11.05078125 10.78125 C11.07143074 19.53480695 10.75184435 28.26161064 10.31030273 37.00292969 C10.18627133 39.52498382 10.08049993 42.04743956 9.97460938 44.5703125 C9.89434784 46.20318037 9.81300711 47.83599563 9.73046875 49.46875 C9.6880732 50.57833069 9.6880732 50.57833069 9.64482117 51.71032715 C9.21341194 59.38763279 6.78001804 65.91634067 2 72 C-1.41510269 74.59076756 -4.83172404 74.35933413 -9 74 C-14.65116279 71.69767442 -14.65116279 71.69767442 -16 69 C-16.48200048 64.46445454 -16.85632888 60.40437936 -14.4375 56.4375 C-11.09953989 54.46895943 -8.89039393 53.93292424 -5 54 C-1.46836719 55.93136169 0.70785355 58.12356066 2 62 C3.56135621 50.07024786 4.4941209 38.20271224 5.0625 26.1875 C5.17867596 23.77485629 5.29659057 21.3623483 5.41929626 18.95002747 C5.49449565 17.46884818 5.56597455 15.98747357 5.6330719 14.50590515 C5.7981676 11.22683907 6.02553432 8.14668051 7 5 C4.69 4.34 2.38 3.68 0 3 C0 2.01 0 1.02 0 0 Z " fill="#132967" transform="translate(912,560)"/>
<path d="M0 0 C17.82 0 35.64 0 54 0 C54 0.99 54 1.98 54 3 C52.02 3.66 50.04 4.32 48 5 C48 25.46 48 45.92 48 67 C49.98 67.66 51.96 68.32 54 69 C54 69.99 54 70.98 54 72 C43.77 72 33.54 72 23 72 C23 71.01 23 70.02 23 69 C25.97 68.505 25.97 68.505 29 68 C29 46.88 29 25.76 29 4 C23.06 4 17.12 4 11 4 C11.01675781 6.2378125 11.03351562 8.475625 11.05078125 10.78125 C11.07143074 19.53480695 10.75184435 28.26161064 10.31030273 37.00292969 C10.18627133 39.52498382 10.08049993 42.04743956 9.97460938 44.5703125 C9.89434784 46.20318037 9.81300711 47.83599563 9.73046875 49.46875 C9.6880732 50.57833069 9.6880732 50.57833069 9.64482117 51.71032715 C9.21341194 59.38763279 6.78001804 65.91634067 2 72 C-1.41510269 74.59076756 -4.83172404 74.35933413 -9 74 C-14.65116279 71.69767442 -14.65116279 71.69767442 -16 69 C-16.48200048 64.46445454 -16.85632888 60.40437936 -14.4375 56.4375 C-11.09953989 54.46895943 -8.89039393 53.93292424 -5 54 C-1.46836719 55.93136169 0.70785355 58.12356066 2 62 C3.56135621 50.07024786 4.4941209 38.20271224 5.0625 26.1875 C5.17867596 23.77485629 5.29659057 21.3623483 5.41929626 18.95002747 C5.49449565 17.46884818 5.56597455 15.98747357 5.6330719 14.50590515 C5.7981676 11.22683907 6.02553432 8.14668051 7 5 C4.69 4.34 2.38 3.68 0 3 C0 2.01 0 1.02 0 0 Z " fill="#132967" transform="translate(912,453)"/>
<path d="M0 0 C20.46 0 40.92 0 62 0 C62 6.6 62 13.2 62 20 C56 20 56 20 53.953125 18.27734375 C50.53353155 13.57932431 48.09892575 9.73883447 47 4 C44.69 4 42.38 4 40 4 C40.33 24.79 40.66 45.58 41 67 C42.65 67.66 44.3 68.32 46 69 C46 69.99 46 70.98 46 72 C35.77 72 25.54 72 15 72 C15 71.01 15 70.02 15 69 C17.97 68.01 17.97 68.01 21 67 C21.33 46.21 21.66 25.42 22 4 C15.27567918 4.12380437 15.27567918 4.12380437 13.3984375 7.109375 C12.89183594 8.41648437 12.89183594 8.41648437 12.375 9.75 C10.42088112 14.20743457 8.91514186 17.0636436 5 20 C3.35 20 1.7 20 0 20 C0 13.4 0 6.8 0 0 Z " fill="#142967" transform="translate(713,560)"/>
<path d="M0 0 C2.625 -0.1875 2.625 -0.1875 5 0 C6.42029008 3.12336519 7.83553689 6.24899218 9.25 9.375 C9.64574219 10.24511719 10.04148437 11.11523438 10.44921875 12.01171875 C12.78722646 17.18599812 14.98666153 22.39192973 17.07080078 27.67333984 C18.40919592 31.02460251 19.85220949 34.3254419 21.3125 37.625 C21.9166852 38.99868977 22.52085127 40.37238795 23.125 41.74609375 C23.43179688 42.44202637 23.73859375 43.13795898 24.0546875 43.85498047 C25.64512079 47.46385104 27.22925418 51.07547184 28.8125 54.6875 C29.10229736 55.34637207 29.39209473 56.00524414 29.69067383 56.68408203 C30.87963309 59.39539945 32.03187844 62.08853785 33.03515625 64.875 C33.85432245 67.27143062 33.85432245 67.27143062 36.625 68.3125 C37.40875 68.539375 38.1925 68.76625 39 69 C39 69.99 39 70.98 39 72 C35.93726169 72.05410136 32.87548548 72.09372225 29.8125 72.125 C28.94818359 72.14175781 28.08386719 72.15851563 27.19335938 72.17578125 C21.5377905 72.21911894 17.24797373 72.1117329 12.9375 68.0625 C10.06938764 63.52903208 7 57.47686326 7 52 C-0.92 52.33 -8.84 52.66 -17 53 C-18.98 57.95 -18.98 57.95 -21 63 C-21.66 64.32 -22.32 65.64 -23 67 C-22.21625 67.144375 -21.4325 67.28875 -20.625 67.4375 C-18 68 -18 68 -16 69 C-16 69.99 -16 70.98 -16 72 C-22.93 72 -29.86 72 -37 72 C-37 71.01 -37 70.02 -37 69 C-36.38511719 68.78085937 -35.77023437 68.56171875 -35.13671875 68.3359375 C-29.89555019 66.31554213 -29.89555019 66.31554213 -26.125 62.3125 C-25.53047934 60.56196693 -24.9401532 58.80971239 -24.38549805 57.04614258 C-22.5471085 51.28245454 -20.23278706 45.85781989 -17.6875 40.375 C-13.85940742 32.00473431 -10.36377115 23.56588235 -7 15 C-6.09071948 12.74700494 -5.17451503 10.49678653 -4.25 8.25 C-3.86328125 7.30640625 -3.4765625 6.3628125 -3.078125 5.390625 C-2 3 -2 3 0 0 Z M-6 26 C-9.61936199 32.83822081 -12.46881647 39.68769203 -15 47 C-8.73 47 -2.46 47 4 47 C1.29768544 39.79382785 -1.39924612 32.801424 -5 26 C-5.33 26 -5.66 26 -6 26 Z " fill="#132A68" transform="translate(634,453)"/>
<path d="M0 0 C1.2065625 0.0309375 1.2065625 0.0309375 2.4375 0.0625 C6.04717805 8.25969396 9.63678738 16.46044605 13.05859375 24.73828125 C14.83473845 29.02014851 16.63626801 33.29113798 18.4375 37.5625 C21.10992828 43.90219758 23.77148834 50.24609013 26.40625 56.6015625 C27.33085376 58.8080033 28.28505646 60.99850772 29.25 63.1875 C30.4375 66.0625 30.4375 66.0625 30.4375 68.0625 C32.4175 68.3925 34.3975 68.7225 36.4375 69.0625 C36.4375 70.0525 36.4375 71.0425 36.4375 72.0625 C33.20850574 72.1500127 29.97981884 72.20306146 26.75 72.25 C25.83798828 72.27513672 24.92597656 72.30027344 23.98632812 72.32617188 C18.98639166 72.38071664 15.45757886 72.40201433 11.4375 69.0625 C7.36237724 63.99946869 5.98155058 59.42262645 3.4375 53.0625 C-4.1525 53.0625 -11.7425 53.0625 -19.5625 53.0625 C-20.7690625 55.970625 -20.7690625 55.970625 -22 58.9375 C-24.4375 64.8125 -24.4375 64.8125 -25.5625 67.0625 C-24.964375 67.206875 -24.36625 67.35125 -23.75 67.5 C-22.00099596 67.9497439 -20.27572977 68.49142341 -18.5625 69.0625 C-18.5625 70.0525 -18.5625 71.0425 -18.5625 72.0625 C-25.4925 72.0625 -32.4225 72.0625 -39.5625 72.0625 C-39.5625 71.0725 -39.5625 70.0825 -39.5625 69.0625 C-38.98242188 68.94777344 -38.40234375 68.83304688 -37.8046875 68.71484375 C-33.54295585 67.42788518 -31.1733773 66.14555298 -28.9453125 62.1953125 C-27.69001388 58.95423075 -26.53241309 55.70068169 -25.41064453 52.41210938 C-23.81162033 47.98234285 -21.88247632 43.69000191 -20 39.375 C-19.21909268 37.56551791 -18.43911855 35.75563275 -17.66015625 33.9453125 C-17.2955127 33.0987207 -16.93086914 32.25212891 -16.55517578 31.37988281 C-15.32685935 28.51240137 -14.12780596 25.63344744 -12.9375 22.75 C-10.94280788 17.9376309 -8.88933953 13.15236249 -6.8125 8.375 C-6.35302979 7.31188599 -6.35302979 7.31188599 -5.88427734 6.22729492 C-3.19873325 0.07801788 -3.19873325 0.07801788 0 0 Z M-8.5625 26.0625 C-12.3926675 33.2766019 -15.4703333 40.15875914 -17.5625 48.0625 C-11.2925 48.0625 -5.0225 48.0625 1.4375 48.0625 C-0.46461085 42.35616744 -2.21757818 37.34622385 -4.75 32 C-5.27980469 30.87464844 -5.80960938 29.74929688 -6.35546875 28.58984375 C-6.75378906 27.75582031 -7.15210938 26.92179687 -7.5625 26.0625 C-7.8925 26.0625 -8.2225 26.0625 -8.5625 26.0625 Z " fill="#132967" transform="translate(859.5625,452.9375)"/>
<path d="M0 0 C2.625 -0.1875 2.625 -0.1875 5 0 C7.36295746 5.2712128 9.67255741 10.56087114 11.9375 15.875 C13.78072885 20.19289126 15.66181985 24.48536867 17.625 28.75 C19.49612151 32.82975545 21.19206913 36.94811689 22.83203125 41.125 C25.15096589 46.8331468 27.66679267 52.46022545 30.17114258 58.08911133 C30.73184849 59.38179032 31.27026458 60.68432968 31.7878418 61.99487305 C33.29225626 65.99275689 33.29225626 65.99275689 36.6875 68.4375 C37.8321875 68.7159375 37.8321875 68.7159375 39 69 C39 69.99 39 70.98 39 72 C35.93726169 72.05410136 32.87548548 72.09372225 29.8125 72.125 C28.94818359 72.14175781 28.08386719 72.15851563 27.19335938 72.17578125 C18.74607794 72.24051138 18.74607794 72.24051138 15 70 C13.5234375 68.265625 13.5234375 68.265625 12.375 66.25 C11.96636719 65.5384375 11.55773437 64.826875 11.13671875 64.09375 C10.76160156 63.4028125 10.38648438 62.711875 10 62 C9.401875 60.9275 8.80375 59.855 8.1875 58.75 C7 56 7 56 7 52 C-0.92 52.33 -8.84 52.66 -17 53 C-18.2065625 55.908125 -18.2065625 55.908125 -19.4375 58.875 C-21.875 64.75 -21.875 64.75 -23 67 C-22.21625 67.144375 -21.4325 67.28875 -20.625 67.4375 C-18 68 -18 68 -16 69 C-16 69.99 -16 70.98 -16 72 C-22.93 72 -29.86 72 -37 72 C-37 71.01 -37 70.02 -37 69 C-36.4112207 68.84539307 -35.82244141 68.69078613 -35.21582031 68.53149414 C-31.33453368 67.21669837 -28.71709277 66.0771714 -26.40039062 62.59716797 C-25.03533546 59.58258509 -23.8626335 56.55400915 -22.75 53.4375 C-21.95485861 51.35220272 -21.15799063 49.26756296 -20.359375 47.18359375 C-19.97604004 46.15782227 -19.59270508 45.13205078 -19.19775391 44.07519531 C-17.65540863 40.11527253 -15.90808224 36.26988742 -14.10986328 32.4206543 C-12.6828991 29.30839081 -11.42710903 26.14141595 -10.171875 22.95703125 C-8.59671032 18.98236571 -6.99046599 15.02093211 -5.375 11.0625 C-4.92278076 9.94270752 -4.92278076 9.94270752 -4.46142578 8.80029297 C-3.17089656 5.64558602 -1.89683856 2.84525784 0 0 Z M-6 25 C-9.23369254 32.59387634 -12.23683071 40.22219013 -15 48 C-8.73 48 -2.46 48 4 48 C1.81966188 39.88429701 -1.34012815 32.55662861 -5 25 C-5.33 25 -5.66 25 -6 25 Z " fill="#132968" transform="translate(857,560)"/>
<path d="M0 0 C1.65 0 3.3 0 5 0 C8.90076326 6.83933826 12.25081051 13.62570349 15 21 C18.63299246 30.69927153 18.63299246 30.69927153 23.0390625 40.05859375 C25.4493089 44.9280753 27.265771 50.09991856 29.22265625 55.1640625 C29.85494141 56.75347656 29.85494141 56.75347656 30.5 58.375 C30.8815625 59.35210938 31.263125 60.32921875 31.65625 61.3359375 C33.69191909 65.37176982 36.27459266 67.51639511 40 70 C40 70.66 40 71.32 40 72 C36.77100574 72.0875127 33.54231884 72.14056146 30.3125 72.1875 C29.40048828 72.21263672 28.48847656 72.23777344 27.54882812 72.26367188 C18.94602981 72.35752058 18.94602981 72.35752058 15 69 C12.40510451 66.1030858 10.89839371 62.90873313 9.3125 59.375 C8.87550781 58.41335938 8.43851563 57.45171875 7.98828125 56.4609375 C7 54 7 54 7 52 C-0.59 52.33 -8.18 52.66 -16 53 C-17.98 57.62 -19.96 62.24 -22 67 C-19.69 67.66 -17.38 68.32 -15 69 C-15 69.99 -15 70.98 -15 72 C-21.93 72 -28.86 72 -36 72 C-36 71.01 -36 70.02 -36 69 C-34.824375 68.814375 -33.64875 68.62875 -32.4375 68.4375 C-28.48489563 66.96400261 -27.02292878 64.83041942 -25.18798828 61.08520508 C-23.70149333 57.75696526 -22.31968439 54.39759362 -21 51 C-20.58234375 49.94039062 -20.1646875 48.88078125 -19.734375 47.7890625 C-18.93757958 45.72270638 -18.15149858 43.65219359 -17.375 41.578125 C-13.10206261 30.45877656 -8.36311606 19.50830706 -3.2265625 8.76171875 C-1.95051681 5.88858403 -0.94704468 2.99602452 0 0 Z M-5 26 C-7.32759263 30.56897813 -9.58114963 35.16584621 -11.75 39.8125 C-12.39195312 41.18341797 -12.39195312 41.18341797 -13.046875 42.58203125 C-14.18336082 45.03199166 -14.18336082 45.03199166 -14 48 C-7.73 48 -1.46 48 5 48 C3.61473415 43.84420246 2.18764528 39.89859331 0.5 35.875 C0.0771875 34.86179687 -0.345625 33.84859375 -0.78125 32.8046875 C-1.78635804 30.49165041 -2.84270167 28.23958658 -4 26 C-4.33 26 -4.66 26 -5 26 Z " fill="#132967" transform="translate(681,560)"/>
<path d="M0 0 C1.98 0 3.96 0 6 0 C10.08533812 9.03795472 13.94354914 18.15389338 17.4375 27.4375 C19.98115904 34.11161479 22.95278041 40.54375374 26 47 C26.9004597 48.93535422 27.79655212 50.8727486 28.6875 52.8125 C29.09355469 53.69550781 29.49960937 54.57851563 29.91796875 55.48828125 C30.91442872 57.80136341 31.7199432 60.10753529 32.5 62.5 C34.17616265 66.41104619 35.33354651 67.11722658 39 69 C39 69.99 39 70.98 39 72 C35.93696422 72.08115993 32.87609185 72.14057409 29.8125 72.1875 C28.94818359 72.21263672 28.08386719 72.23777344 27.19335938 72.26367188 C22.3052519 72.31985702 18.91017514 72.27688877 15 69 C12.40510451 66.1030858 10.89839371 62.90873313 9.3125 59.375 C8.87550781 58.41335938 8.43851563 57.45171875 7.98828125 56.4609375 C7 54 7 54 7 52 C-0.59 52.33 -8.18 52.66 -16 53 C-17.98 57.62 -19.96 62.24 -22 67 C-19.69 67.66 -17.38 68.32 -15 69 C-15 69.99 -15 70.98 -15 72 C-21.93 72 -28.86 72 -36 72 C-36 71.01 -36 70.02 -36 69 C-35.39671875 68.83886719 -34.7934375 68.67773438 -34.171875 68.51171875 C-30.41474883 67.23308387 -27.71501175 66.24914256 -25.6875 62.70703125 C-24.69063505 59.82858372 -23.84758423 56.92565259 -23 54 C-20.61243901 47.83730198 -17.97385433 41.84224011 -14.95703125 35.96484375 C-13.06410381 32.07854781 -11.56891757 28.02508508 -10 24 C-9.00302029 21.4779108 -8.00396548 18.9568024 -7 16.4375 C-6.61618164 15.47432861 -6.61618164 15.47432861 -6.22460938 14.49169922 C-4.26602379 9.60400131 -2.18498028 4.79014906 0 0 Z M-5 26 C-7.30538668 28.30538668 -7.86538465 30.00115858 -8.9375 33.0625 C-9.25589844 33.96097656 -9.57429687 34.85945312 -9.90234375 35.78515625 C-11.2900132 39.8493981 -12.64192459 43.92577376 -14 48 C-7.73 48 -1.46 48 5 48 C3.29024568 42.86976525 3.29024568 42.86976525 1.2734375 37.9140625 C0.9640625 37.21152344 0.6546875 36.50898437 0.3359375 35.78515625 C0.01882813 35.07230469 -0.29828125 34.35945312 -0.625 33.625 C-0.94984375 32.88894531 -1.2746875 32.15289063 -1.609375 31.39453125 C-2.40384503 29.59529031 -3.20158771 27.79749504 -4 26 C-4.33 26 -4.66 26 -5 26 Z " fill="#132967" transform="translate(604,560)"/>
<path d="M0 0 C18.48 0 36.96 0 56 0 C56 6.6 56 13.2 56 20 C51 20 51 20 49.0859375 18.4609375 C41 8.60273973 41 8.60273973 41 4 C33.08 4.495 33.08 4.495 25 5 C25 25.46 25 45.92 25 67 C26.65 67.66 28.3 68.32 30 69 C30 69.99 30 70.98 30 72 C20.1 72 10.2 72 0 72 C0 71.01 0 70.02 0 69 C2.475 68.01 2.475 68.01 5 67 C5 46.54 5 26.08 5 5 C2.525 4.01 2.525 4.01 0 3 C0 2.01 0 1.02 0 0 Z " fill="#142967" transform="translate(781,560)"/>
</svg>
