<?xml version="1.0" encoding="UTF-8" standalone="no"?>
<!-- Created with Inkscape (http://www.inkscape.org/) -->

<svg
   xmlns:dc="http://purl.org/dc/elements/1.1/"
   xmlns:cc="http://creativecommons.org/ns#"
   xmlns:rdf="http://www.w3.org/1999/02/22-rdf-syntax-ns#"
   xmlns:svg="http://www.w3.org/2000/svg"
   xmlns="http://www.w3.org/2000/svg"
   xmlns:sodipodi="http://sodipodi.sourceforge.net/DTD/sodipodi-0.dtd"
   xmlns:inkscape="http://www.inkscape.org/namespaces/inkscape"
   width="693.70129"
   height="969.7807"
   id="svg3975"
   sodipodi:version="0.32"
   inkscape:version="0.48.1 "
   version="1.0"
   sodipodi:docname="ZZ1.svg"
   inkscape:output_extension="org.inkscape.output.svg.inkscape">
  <defs
     id="defs3977">
    <inkscape:perspective
       sodipodi:type="inkscape:persp3d"
       inkscape:vp_x="0 : 526.18109 : 1"
       inkscape:vp_y="0 : 1000 : 0"
       inkscape:vp_z="744.09448 : 526.18109 : 1"
       inkscape:persp3d-origin="372.04724 : 350.78739 : 1"
       id="perspective3983" />
  </defs>
  <sodipodi:namedview
     id="base"
     pagecolor="#ffffff"
     bordercolor="#666666"
     borderopacity="1.0"
     gridtolerance="10000"
     guidetolerance="10"
     objecttolerance="10"
     inkscape:pageopacity="0.0"
     inkscape:pageshadow="2"
     inkscape:zoom="0.49497475"
     inkscape:cx="245.30571"
     inkscape:cy="351.7388"
     inkscape:document-units="px"
     inkscape:current-layer="layer1"
     showgrid="false"
     inkscape:window-width="1280"
     inkscape:window-height="1004"
     inkscape:window-x="-8"
     inkscape:window-y="-8"
     fit-margin-top="0"
     fit-margin-left="0"
     fit-margin-right="0"
     fit-margin-bottom="0"
     inkscape:window-maximized="1" />
  <metadata
     id="metadata3980">
    <rdf:RDF>
      <cc:Work
         rdf:about="">
        <dc:format>image/svg+xml</dc:format>
        <dc:type
           rdf:resource="http://purl.org/dc/dcmitype/StillImage" />
      </cc:Work>
    </rdf:RDF>
  </metadata>
  <g
     inkscape:label="Layer 1"
     inkscape:groupmode="layer"
     id="layer1"
     transform="translate(-3.1493365,-20.813061)">
    <path
       style="fill:#ffc705;fill-opacity:1;stroke:none"
       d="m 349.26736,516.68038 c -48.94815,0 -88.69179,39.74361 -88.69179,88.6917 0,36.69334 22.32021,68.18993 54.11898,81.66824 -9.30852,-9.02677 -15.08165,-21.68119 -15.08149,-35.6618 0,-27.33628 22.12752,-49.53648 49.43652,-49.65428 0.0735,0 0.14425,3.6e-4 0.21778,0 23.46086,-0.11893 42.46748,-19.19659 42.46748,-42.68526 0,-21.12726 -15.38865,-38.68297 -35.553,-42.08637 -2.28635,-0.17698 -4.58299,-0.27223 -6.91448,-0.27223 z m 34.68186,7.02346 c 9.11532,9.00405 14.75464,21.52016 14.75464,35.33514 0,27.33628 -22.12769,49.53645 -49.4365,49.65429 -0.0728,3e-4 -0.14496,0 -0.21778,0 -23.46105,0.1189 -42.46749,19.19658 -42.46749,42.68525 -1.7e-4,22.47676 17.41577,40.92534 39.47306,42.57639 1.06487,0.0379 2.13794,0.0544 3.21221,0.0544 48.94815,0 88.6918,-39.68917 88.6918,-88.63727 0,-36.65034 -22.27144,-68.16354 -54.00994,-81.66824 z m -34.68186,17.91257 c 9.61708,-2e-5 17.42256,7.80531 17.42256,17.42257 -1.8e-4,9.61724 -7.8053,17.42256 -17.42256,17.42256 -9.61742,-2e-5 -17.42256,-7.80532 -17.42256,-17.42256 -1.8e-4,-9.61728 7.8053,-17.42257 17.42256,-17.42257 z m 0,92.33957 c 9.61708,-2e-5 17.42256,7.8053 17.42256,17.42254 -1.8e-4,9.61724 -7.8053,17.42256 -17.42256,17.42256 -9.61742,-10e-6 -17.42256,-7.8053 -17.42256,-17.42256 -1.8e-4,-9.61726 7.8053,-17.42254 17.42256,-17.42254 z"
       id="circle2461"
       inkscape:connector-curvature="0" />
    <path
       style="fill:#ffc705;fill-opacity:1;stroke:none"
       d="m 251.74554,275.48965 c -0.01,0.57094 -0.0554,1.14512 -0.0554,1.7184 0,53.85366 43.70732,97.561 97.56098,97.56098 53.85366,0 97.56098,-43.70732 97.56098,-97.56098 0,-0.57343 -0.0456,-1.14732 -0.0554,-1.7184 -16.45116,37.5369 -53.91997,63.80266 -97.50555,63.80266 -43.58767,0 -81.05563,-26.26285 -97.50554,-63.80266 z"
       id="lower_bow_of_crescent"
       inkscape:connector-curvature="0" />
    <circle
       style="fill:#ffc705;fill-opacity:1;stroke:none"
       sodipodi:ry="4"
       sodipodi:rx="4"
       sodipodi:cy="19"
       sodipodi:cx="20"
       r="4"
       cy="19"
       cx="20"
       id="upper_circle"
       transform="matrix(17.738359,0,0,17.738359,-5.4998218,-86.451138)"
       d="m 24,19 c 0,2.209139 -1.790861,4 -4,4 -2.209139,0 -4,-1.790861 -4,-4 0,-2.209139 1.790861,-4 4,-4 2.209139,0 4,1.790861 4,4 z" />
    <path
       style="fill:#ffc705;fill-opacity:1;stroke:none"
       d="m 347.53828,20.813061 c -13.50244,9.797099 -3.38058,25.568499 -4.37357,33.971399 -1.0716,9.067433 -5.58627,10.900733 -7.62831,18.307933 -2.59009,9.395097 -1.3139,19.127797 0.61027,22.986617 1.74776,3.50503 3.03318,6.56577 3.66158,9.25568 0.0493,0.211 0.16327,0.40319 0.20343,0.61025 0.0144,0.0464 -0.0136,0.15676 0,0.20343 0.005,0.0257 -0.004,0.0761 0,0.10171 0.0199,0.0703 0.0835,0.13247 0.10171,0.20342 0.0364,0.14191 0.0722,0.2623 0.10171,0.40685 0.007,0.0362 -0.007,0.0654 0,0.10171 0.005,0.0419 -0.005,0.06 0,0.10171 0.005,0.0292 -0.005,0.0724 0,0.10172 0.0809,0.4828 0.20381,0.91812 0.20342,1.42394 0.004,4.90512 -4.04542,8.95055 -8.95054,8.95055 -4.90514,3e-5 -8.85268,-4.04543 -8.84885,-8.95055 -6e-5,-0.0766 -0.002,-0.12723 0,-0.20342 0.002,-0.0762 -0.004,-0.12772 0,-0.20342 0.004,-0.0833 0.0953,-0.12075 0.10171,-0.20343 0.002,-0.0225 -0.002,-0.0792 0,-0.10171 0.003,-0.0474 -0.004,-0.1561 0,-0.20342 0.004,-0.0373 -0.004,-0.0645 0,-0.10171 0.004,-0.0472 -0.005,-0.0546 0,-0.10172 0.009,-0.0741 -0.0112,-0.12988 0,-0.2034 0.0176,-0.14069 0.0779,-0.26732 0.10171,-0.40685 0.007,-0.0361 -0.008,-0.0657 0,-0.10171 0.004,-0.0232 -0.004,-0.0785 0,-0.10171 0.007,-0.0286 -0.007,-0.0732 0,-0.10171 0.009,-0.0463 0.0918,-0.0556 0.10171,-0.10172 0.009,-0.0355 -0.01,-0.0664 0,-0.10171 0.0211,-0.0921 0.0782,-0.21344 0.10171,-0.30513 0.006,-0.0209 -0.006,-0.0808 0,-0.10172 0.0186,-0.0686 0.0819,-0.13497 0.10172,-0.20342 0.0198,-0.0684 -0.0211,-0.23686 0,-0.30512 1.41883,-4.5942 5.60855,-8.73016 5.59409,-14.74806 -0.0192,-7.962213 -5.39816,-11.960603 -6.61119,-14.442933 -0.85506,-1.750107 -2.25733,-6.65788 -0.20343,-11.595014 -3.75203,4.617034 -7.95739,8.149334 -7.93344,13.222387 0.0179,3.789823 2.13206,7.600057 1.93251,13.120696 -0.23151,6.4055 -10.60428,10.507474 -10.98477,26.546504 0,24.51203 19.8339,44.34593 44.3459,44.3459 24.512,0 44.3459,-19.83387 44.3459,-44.3459 -0.38049,-16.03903 -10.75326,-20.141004 -10.98477,-26.546504 -0.19955,-5.520639 1.91461,-9.330873 1.93251,-13.120696 0.024,-5.073053 -4.18141,-8.605353 -7.93345,-13.222387 2.05391,4.937134 0.6516,9.844907 -0.20342,11.595014 -1.21304,2.48233 -6.59202,6.48072 -6.61119,14.442933 -0.0145,6.0179 4.17525,10.15386 5.59409,14.74806 0.0102,0.0271 -0.01,0.0745 0,0.1017 0.007,0.0228 -0.007,0.0789 0,0.10171 0.012,0.0342 -0.0116,0.0674 0,0.10171 0.0198,0.0685 0.0832,0.13481 0.10171,0.20342 0.0371,0.13726 0.0701,0.26872 0.10171,0.40685 0.0476,0.17653 0.0649,0.32788 0.10172,0.50856 0.0159,0.093 0.0885,0.21162 0.10171,0.30514 0.0285,0.17584 -0.0181,0.3294 0,0.50854 0.007,0.0947 -0.004,0.20989 0,0.30513 0.006,0.0827 0.0975,0.12016 0.10171,0.20343 4.4e-4,0.024 -2.7e-4,0.0778 0,0.10171 10e-4,0.038 -9.6e-4,0.0636 0,0.10171 0.002,0.0762 5e-5,0.12681 0,0.20342 0.004,4.90512 -3.94372,8.95055 -8.84885,8.95055 -3.83209,3e-5 -7.09723,-2.49792 -8.34028,-5.89923 -0.01,-0.0272 0.01,-0.0744 0,-0.10171 -0.32927,-0.92935 -0.61108,-1.90725 -0.61027,-2.94961 -4.2e-4,-0.53648 0.11262,-1.01532 0.20343,-1.52566 0.013,-0.0729 -0.0147,-0.13114 0,-0.20342 0.0236,-0.11564 0.0737,-0.19115 0.10171,-0.30513 0.0163,-0.0908 0.0836,-0.21469 0.10171,-0.30514 0.0199,-0.0702 -0.0216,-0.23558 0,-0.30514 0.0199,-0.0901 0.0801,-0.11368 0.10171,-0.20342 0.0349,-0.10316 0.0632,-0.20367 0.10171,-0.30512 0.008,-0.0297 -0.008,-0.072 0,-0.10171 0.84763,-3.18128 2.65767,-6.09252 3.45817,-8.23856 1.44071,-3.86251 4.42456,-10.211937 4.37357,-18.30795 -0.0385,-6.114753 -1.46982,-19.803653 -8.95057,-30.411486 -5.98435,-8.485867 -9.85813,-12.1263 -11.90015,-17.595967 -1.04122,-2.788433 -0.21651,-6.386467 1.8308,-9.967666 z"
       id="flame"
       inkscape:connector-curvature="0" />
    <rect
       style="fill:#ffc705;fill-opacity:1;stroke:none"
       height="425.72061"
       width="88.691795"
       y="392.48456"
       x="154.14542"
       id="left_beam" />
    <rect
       style="fill:#ffc705;fill-opacity:1;stroke:none"
       height="425.72061"
       width="88.691795"
       y="392.48456"
       x="455.69751"
       id="right_beam" />
    <path
       style="fill:#ffc705;fill-opacity:1;stroke:none"
       d="m 262.83651,392.74411 172.57579,0 -86.2879,52.98186 -86.28789,-52.98186 z"
       id="upper_triangle"
       inkscape:connector-curvature="0" />
    <rect
       style="fill:#ffc705;fill-opacity:1;stroke:none"
       height="35.476719"
       width="177.38359"
       y="463.43799"
       x="260.57556"
       id="upper_crossbeam" />
    <rect
       style="fill:#ffc705;fill-opacity:1;stroke:none"
       height="35.476719"
       width="177.38359"
       y="711.77502"
       x="260.57556"
       id="lower_crossbeam" />
    <path
       style="fill:#ffc705;fill-opacity:1;stroke:none"
       d="m 263.40572,765.24705 172.0092,0 -86.0046,52.9871 -86.0046,-52.9871 z"
       id="lower_triangle"
       inkscape:connector-curvature="0" />
    <g
       id="g3809"
       transform="matrix(3.3333333,0,0,3.3333333,149.29336,396.25057)"
       style="fill:#ffc705;fill-opacity:1;stroke:#ffffff;stroke-opacity:1">
      <g
         transform="matrix(1.5234931,0.5573508,-0.3002198,1.1701506,-20.298536,-88.39277)"
         id="g3803"
         style="fill:#ffc705;fill-opacity:1;stroke:#ffffff;stroke-opacity:1">
        <path
           transform="matrix(0.6504925,0.375562,-0.4524322,0.7836354,89.111092,24.969291)"
           style="fill:#ffc705;fill-opacity:1;stroke:#ffffff;stroke-width:1.31285501;stroke-linecap:butt;stroke-linejoin:round;stroke-miterlimit:4;stroke-opacity:1"
           d="m 55.469757,167.29398 c -6.954629,3.60577 -7.344785,5.38034 -17.06739,5.69215 -9.44345,0.30285 -14.726693,-3.36984 -17.067391,-5.69215 2.934357,-2.58515 8.040078,-5.12584 17.067391,-5.69216 9.394409,-0.58935 10.946892,1.85893 17.06739,5.69216 z"
           id="path3805"
           sodipodi:nodetypes="cscsc"
           inkscape:connector-curvature="0" />
        <path
           style="fill:#ffc705;fill-opacity:1;fill-rule:evenodd;stroke:#ffffff;stroke-width:1px;stroke-linecap:round;stroke-linejoin:miter;stroke-opacity:1"
           d="m 31.404129,166.53596 c 16.953292,9.68531 17.191743,9.80006 17.191743,9.80006"
           id="path3807"
           inkscape:connector-curvature="0" />
      </g>
      <g
         transform="matrix(2.2221039,0.4833448,-0.4378882,1.014776,-29.234651,-47.88631)"
         id="g3797"
         style="fill:#ffc705;fill-opacity:1;stroke:#ffffff;stroke-opacity:1">
        <path
           transform="matrix(0.6504925,0.375562,-0.4524322,0.7836354,89.111092,24.969291)"
           style="fill:#ffc705;fill-opacity:1;stroke:#ffffff;stroke-width:1.31285501;stroke-linecap:butt;stroke-linejoin:round;stroke-miterlimit:4;stroke-opacity:1"
           d="m 55.469757,167.29398 c -6.954629,3.60577 -7.344785,5.38034 -17.06739,5.69215 -9.44345,0.30285 -14.726693,-3.36984 -17.067391,-5.69215 2.934357,-2.58515 8.040078,-5.12584 17.067391,-5.69216 9.394409,-0.58935 10.946892,1.85893 17.06739,5.69216 z"
           id="path3799"
           sodipodi:nodetypes="cscsc"
           inkscape:connector-curvature="0" />
        <path
           style="fill:#ffc705;fill-opacity:1;fill-rule:evenodd;stroke:#ffffff;stroke-width:1px;stroke-linecap:round;stroke-linejoin:miter;stroke-opacity:1"
           d="m 31.404129,166.53596 c 16.953292,9.68531 17.191743,9.80006 17.191743,9.80006"
           id="path3801"
           inkscape:connector-curvature="0" />
      </g>
      <g
         transform="matrix(2.2687337,0.6974549,-0.4470771,1.4642974,-31.187548,-141.4651)"
         id="g3791"
         style="fill:#ffc705;fill-opacity:1;stroke:#ffffff;stroke-opacity:1">
        <path
           transform="matrix(0.6504925,0.375562,-0.4524322,0.7836354,89.111092,24.969291)"
           style="fill:#ffc705;fill-opacity:1;stroke:#ffffff;stroke-width:1.31285501;stroke-linecap:butt;stroke-linejoin:round;stroke-miterlimit:4;stroke-opacity:1"
           d="m 55.469757,167.29398 c -6.954629,3.60577 -7.344785,5.38034 -17.06739,5.69215 -9.44345,0.30285 -14.726693,-3.36984 -17.067391,-5.69215 2.934357,-2.58515 8.040078,-5.12584 17.067391,-5.69216 9.394409,-0.58935 10.946892,1.85893 17.06739,5.69216 z"
           id="path3793"
           sodipodi:nodetypes="cscsc"
           inkscape:connector-curvature="0" />
        <path
           style="fill:#ffc705;fill-opacity:1;fill-rule:evenodd;stroke:#ffffff;stroke-width:1px;stroke-linecap:round;stroke-linejoin:miter;stroke-opacity:1"
           d="m 31.404129,166.53596 c 16.953292,9.68531 17.191743,9.80006 17.191743,9.80006"
           id="path3795"
           inkscape:connector-curvature="0" />
      </g>
      <g
         transform="matrix(1.9692524,0.3545514,-0.2538945,1.4702578,-17.678214,-119.0494)"
         id="g3779"
         style="fill:#ffc705;fill-opacity:1;stroke:#ffffff;stroke-opacity:1">
        <path
           transform="matrix(0.6504925,0.375562,-0.4524322,0.7836354,89.111092,24.969291)"
           style="fill:#ffc705;fill-opacity:1;stroke:#ffffff;stroke-width:1.31285501;stroke-linecap:butt;stroke-linejoin:round;stroke-miterlimit:4;stroke-opacity:1"
           d="m 55.469757,167.29398 c -6.954629,3.60577 -7.344785,5.38034 -17.06739,5.69215 -9.44345,0.30285 -14.726693,-3.36984 -17.067391,-5.69215 2.934357,-2.58515 8.040078,-5.12584 17.067391,-5.69216 9.394409,-0.58935 10.946892,1.85893 17.06739,5.69216 z"
           id="path3781"
           sodipodi:nodetypes="cscsc"
           inkscape:connector-curvature="0" />
        <path
           style="fill:#ffc705;fill-opacity:1;fill-rule:evenodd;stroke:#ffffff;stroke-width:1px;stroke-linecap:round;stroke-linejoin:miter;stroke-opacity:1"
           d="m 31.404129,166.53596 c 16.953292,9.68531 17.191743,9.80006 17.191743,9.80006"
           id="path3783"
           inkscape:connector-curvature="0" />
      </g>
      <g
         transform="matrix(1.5205947,0,0,1.6200857,-26.307548,-126.5044)"
         id="g3749"
         style="fill:#ffc705;fill-opacity:1;stroke:#ffffff;stroke-opacity:1">
        <path
           transform="matrix(0.6504925,0.375562,-0.4524322,0.7836354,89.111092,24.969291)"
           style="fill:#ffc705;fill-opacity:1;stroke:#ffffff;stroke-width:1.31285501;stroke-linecap:butt;stroke-linejoin:round;stroke-miterlimit:4;stroke-opacity:1"
           d="m 55.469757,167.29398 c -6.954629,3.60577 -7.344785,5.38034 -17.06739,5.69215 -9.44345,0.30285 -14.726693,-3.36984 -17.067391,-5.69215 2.934357,-2.58515 8.040078,-5.12584 17.067391,-5.69216 9.394409,-0.58935 10.946892,1.85893 17.06739,5.69216 z"
           id="path3736"
           sodipodi:nodetypes="cscsc"
           inkscape:connector-curvature="0" />
        <path
           style="fill:#ffc705;fill-opacity:1;fill-rule:evenodd;stroke:#ffffff;stroke-width:1px;stroke-linecap:round;stroke-linejoin:miter;stroke-opacity:1"
           d="m 31.404129,166.53596 c 16.953292,9.68531 17.191743,9.80006 17.191743,9.80006"
           id="path3747"
           inkscape:connector-curvature="0" />
      </g>
      <g
         transform="matrix(1.6847893,-0.5881774,0.7493386,1.7312957,-188.23944,-114.87813)"
         id="g3785"
         style="fill:#ffc705;fill-opacity:1;stroke:#ffffff;stroke-opacity:1">
        <path
           transform="matrix(0.6504925,0.375562,-0.4524322,0.7836354,89.111092,24.969291)"
           style="fill:#ffc705;fill-opacity:1;stroke:#ffffff;stroke-width:1.31285501;stroke-linecap:butt;stroke-linejoin:round;stroke-miterlimit:4;stroke-opacity:1"
           d="m 55.469757,167.29398 c -6.954629,3.60577 -7.344785,5.38034 -17.06739,5.69215 -9.44345,0.30285 -14.726693,-3.36984 -17.067391,-5.69215 2.934357,-2.58515 8.040078,-5.12584 17.067391,-5.69216 9.394409,-0.58935 10.946892,1.85893 17.06739,5.69216 z"
           id="path3787"
           sodipodi:nodetypes="cscsc"
           inkscape:connector-curvature="0" />
        <path
           style="fill:#ffc705;fill-opacity:1;fill-rule:evenodd;stroke:#ffffff;stroke-width:1px;stroke-linecap:round;stroke-linejoin:miter;stroke-opacity:1"
           d="m 31.404129,166.53596 c 16.953292,9.68531 17.191743,9.80006 17.191743,9.80006"
           id="path3789"
           inkscape:connector-curvature="0" />
      </g>
      <g
         transform="matrix(1.2746061,-0.9578864,1.0695214,1.1415644,-202.03983,8.3820218)"
         id="g3753"
         style="fill:#ffc705;fill-opacity:1;stroke:#ffffff;stroke-opacity:1">
        <path
           transform="matrix(0.6504925,0.375562,-0.4524322,0.7836354,89.111092,24.969291)"
           style="fill:#ffc705;fill-opacity:1;stroke:#ffffff;stroke-width:1.31285501;stroke-linecap:butt;stroke-linejoin:round;stroke-miterlimit:4;stroke-opacity:1"
           d="m 55.469757,167.29398 c -6.954629,3.60577 -7.344785,5.38034 -17.06739,5.69215 -9.44345,0.30285 -14.726693,-3.36984 -17.067391,-5.69215 2.934357,-2.58515 8.040078,-5.12584 17.067391,-5.69216 9.394409,-0.58935 10.946892,1.85893 17.06739,5.69216 z"
           id="path3755"
           sodipodi:nodetypes="cscsc"
           inkscape:connector-curvature="0" />
        <path
           style="fill:#ffc705;fill-opacity:1;fill-rule:evenodd;stroke:#ffffff;stroke-width:1px;stroke-linecap:round;stroke-linejoin:miter;stroke-opacity:1"
           d="m 31.404129,166.53596 c 16.953292,9.68531 17.191743,9.80006 17.191743,9.80006"
           id="path3757"
           inkscape:connector-curvature="0" />
      </g>
    </g>
    <g
       transform="matrix(-3.3333333,0,0,3.3333333,550.70662,396.78838)"
       id="g3832"
       style="fill:#ffc705;fill-opacity:1;stroke:#ffffff;stroke-opacity:1">
      <g
         transform="matrix(1.5234931,0.5573508,-0.3002198,1.1701506,-20.298536,-88.39277)"
         id="g3834"
         style="fill:#ffc705;fill-opacity:1;stroke:#ffffff;stroke-opacity:1">
        <path
           transform="matrix(0.6504925,0.375562,-0.4524322,0.7836354,89.111092,24.969291)"
           style="fill:#ffc705;fill-opacity:1;stroke:#ffffff;stroke-width:1.31285501;stroke-linecap:butt;stroke-linejoin:round;stroke-miterlimit:4;stroke-opacity:1"
           d="m 55.469757,167.29398 c -6.954629,3.60577 -7.344785,5.38034 -17.06739,5.69215 -9.44345,0.30285 -14.726693,-3.36984 -17.067391,-5.69215 2.934357,-2.58515 8.040078,-5.12584 17.067391,-5.69216 9.394409,-0.58935 10.946892,1.85893 17.06739,5.69216 z"
           id="path3836"
           sodipodi:nodetypes="cscsc"
           inkscape:connector-curvature="0" />
        <path
           style="fill:#ffc705;fill-opacity:1;fill-rule:evenodd;stroke:#ffffff;stroke-width:1px;stroke-linecap:round;stroke-linejoin:miter;stroke-opacity:1"
           d="m 31.404129,166.53596 c 16.953292,9.68531 17.191743,9.80006 17.191743,9.80006"
           id="path3838"
           inkscape:connector-curvature="0" />
      </g>
      <g
         transform="matrix(2.2221039,0.4833448,-0.4378882,1.014776,-29.234651,-47.88631)"
         id="g3840"
         style="fill:#ffc705;fill-opacity:1;stroke:#ffffff;stroke-opacity:1">
        <path
           transform="matrix(0.6504925,0.375562,-0.4524322,0.7836354,89.111092,24.969291)"
           style="fill:#ffc705;fill-opacity:1;stroke:#ffffff;stroke-width:1.31285501;stroke-linecap:butt;stroke-linejoin:round;stroke-miterlimit:4;stroke-opacity:1"
           d="m 55.469757,167.29398 c -6.954629,3.60577 -7.344785,5.38034 -17.06739,5.69215 -9.44345,0.30285 -14.726693,-3.36984 -17.067391,-5.69215 2.934357,-2.58515 8.040078,-5.12584 17.067391,-5.69216 9.394409,-0.58935 10.946892,1.85893 17.06739,5.69216 z"
           id="path3842"
           sodipodi:nodetypes="cscsc"
           inkscape:connector-curvature="0" />
        <path
           style="fill:#ffc705;fill-opacity:1;fill-rule:evenodd;stroke:#ffffff;stroke-width:1px;stroke-linecap:round;stroke-linejoin:miter;stroke-opacity:1"
           d="m 31.404129,166.53596 c 16.953292,9.68531 17.191743,9.80006 17.191743,9.80006"
           id="path3844"
           inkscape:connector-curvature="0" />
      </g>
      <g
         transform="matrix(2.2687337,0.6974549,-0.4470771,1.4642974,-31.187548,-141.4651)"
         id="g3846"
         style="fill:#ffc705;fill-opacity:1;stroke:#ffffff;stroke-opacity:1">
        <path
           transform="matrix(0.6504925,0.375562,-0.4524322,0.7836354,89.111092,24.969291)"
           style="fill:#ffc705;fill-opacity:1;stroke:#ffffff;stroke-width:1.31285501;stroke-linecap:butt;stroke-linejoin:round;stroke-miterlimit:4;stroke-opacity:1"
           d="m 55.469757,167.29398 c -6.954629,3.60577 -7.344785,5.38034 -17.06739,5.69215 -9.44345,0.30285 -14.726693,-3.36984 -17.067391,-5.69215 2.934357,-2.58515 8.040078,-5.12584 17.067391,-5.69216 9.394409,-0.58935 10.946892,1.85893 17.06739,5.69216 z"
           id="path3848"
           sodipodi:nodetypes="cscsc"
           inkscape:connector-curvature="0" />
        <path
           style="fill:#ffc705;fill-opacity:1;fill-rule:evenodd;stroke:#ffffff;stroke-width:1px;stroke-linecap:round;stroke-linejoin:miter;stroke-opacity:1"
           d="m 31.404129,166.53596 c 16.953292,9.68531 17.191743,9.80006 17.191743,9.80006"
           id="path3850"
           inkscape:connector-curvature="0" />
      </g>
      <g
         transform="matrix(1.9692524,0.3545514,-0.2538945,1.4702578,-17.678214,-119.0494)"
         id="g3852"
         style="fill:#ffc705;fill-opacity:1;stroke:#ffffff;stroke-opacity:1">
        <path
           transform="matrix(0.6504925,0.375562,-0.4524322,0.7836354,89.111092,24.969291)"
           style="fill:#ffc705;fill-opacity:1;stroke:#ffffff;stroke-width:1.31285501;stroke-linecap:butt;stroke-linejoin:round;stroke-miterlimit:4;stroke-opacity:1"
           d="m 55.469757,167.29398 c -6.954629,3.60577 -7.344785,5.38034 -17.06739,5.69215 -9.44345,0.30285 -14.726693,-3.36984 -17.067391,-5.69215 2.934357,-2.58515 8.040078,-5.12584 17.067391,-5.69216 9.394409,-0.58935 10.946892,1.85893 17.06739,5.69216 z"
           id="path3854"
           sodipodi:nodetypes="cscsc"
           inkscape:connector-curvature="0" />
        <path
           style="fill:#ffc705;fill-opacity:1;fill-rule:evenodd;stroke:#ffffff;stroke-width:1px;stroke-linecap:round;stroke-linejoin:miter;stroke-opacity:1"
           d="m 31.404129,166.53596 c 16.953292,9.68531 17.191743,9.80006 17.191743,9.80006"
           id="path3856"
           inkscape:connector-curvature="0" />
      </g>
      <g
         transform="matrix(1.5205947,0,0,1.6200857,-26.307548,-126.5044)"
         id="g3858"
         style="fill:#ffc705;fill-opacity:1;stroke:#ffffff;stroke-opacity:1">
        <path
           transform="matrix(0.6504925,0.375562,-0.4524322,0.7836354,89.111092,24.969291)"
           style="fill:#ffc705;fill-opacity:1;stroke:#ffffff;stroke-width:1.31285501;stroke-linecap:butt;stroke-linejoin:round;stroke-miterlimit:4;stroke-opacity:1"
           d="m 55.469757,167.29398 c -6.954629,3.60577 -7.344785,5.38034 -17.06739,5.69215 -9.44345,0.30285 -14.726693,-3.36984 -17.067391,-5.69215 2.934357,-2.58515 8.040078,-5.12584 17.067391,-5.69216 9.394409,-0.58935 10.946892,1.85893 17.06739,5.69216 z"
           id="path3860"
           sodipodi:nodetypes="cscsc"
           inkscape:connector-curvature="0" />
        <path
           style="fill:#ffc705;fill-opacity:1;fill-rule:evenodd;stroke:#ffffff;stroke-width:1px;stroke-linecap:round;stroke-linejoin:miter;stroke-opacity:1"
           d="m 31.404129,166.53596 c 16.953292,9.68531 17.191743,9.80006 17.191743,9.80006"
           id="path3862"
           inkscape:connector-curvature="0" />
      </g>
      <g
         transform="matrix(1.6847893,-0.5881774,0.7493386,1.7312957,-188.23944,-114.87813)"
         id="g3864"
         style="fill:#ffc705;fill-opacity:1;stroke:#ffffff;stroke-opacity:1">
        <path
           transform="matrix(0.6504925,0.375562,-0.4524322,0.7836354,89.111092,24.969291)"
           style="fill:#ffc705;fill-opacity:1;stroke:#ffffff;stroke-width:1.31285501;stroke-linecap:butt;stroke-linejoin:round;stroke-miterlimit:4;stroke-opacity:1"
           d="m 55.469757,167.29398 c -6.954629,3.60577 -7.344785,5.38034 -17.06739,5.69215 -9.44345,0.30285 -14.726693,-3.36984 -17.067391,-5.69215 2.934357,-2.58515 8.040078,-5.12584 17.067391,-5.69216 9.394409,-0.58935 10.946892,1.85893 17.06739,5.69216 z"
           id="path3866"
           sodipodi:nodetypes="cscsc"
           inkscape:connector-curvature="0" />
        <path
           style="fill:#ffc705;fill-opacity:1;fill-rule:evenodd;stroke:#ffffff;stroke-width:1px;stroke-linecap:round;stroke-linejoin:miter;stroke-opacity:1"
           d="m 31.404129,166.53596 c 16.953292,9.68531 17.191743,9.80006 17.191743,9.80006"
           id="path3868"
           inkscape:connector-curvature="0" />
      </g>
      <g
         transform="matrix(1.2746061,-0.9578864,1.0695214,1.1415644,-202.03983,8.3820218)"
         id="g3870"
         style="fill:#ffc705;fill-opacity:1;stroke:#ffffff;stroke-opacity:1">
        <path
           transform="matrix(0.6504925,0.375562,-0.4524322,0.7836354,89.111092,24.969291)"
           style="fill:#ffc705;fill-opacity:1;stroke:#ffffff;stroke-width:1.31285501;stroke-linecap:butt;stroke-linejoin:round;stroke-miterlimit:4;stroke-opacity:1"
           d="m 55.469757,167.29398 c -6.954629,3.60577 -7.344785,5.38034 -17.06739,5.69215 -9.44345,0.30285 -14.726693,-3.36984 -17.067391,-5.69215 2.934357,-2.58515 8.040078,-5.12584 17.067391,-5.69216 9.394409,-0.58935 10.946892,1.85893 17.06739,5.69216 z"
           id="path3872"
           sodipodi:nodetypes="cscsc"
           inkscape:connector-curvature="0" />
        <path
           style="fill:#ffc705;fill-opacity:1;fill-rule:evenodd;stroke:#ffffff;stroke-width:1px;stroke-linecap:round;stroke-linejoin:miter;stroke-opacity:1"
           d="m 31.404129,166.53596 c 16.953292,9.68531 17.191743,9.80006 17.191743,9.80006"
           id="path3874"
           inkscape:connector-curvature="0" />
      </g>
    </g>
    <rect
       style="fill:#ffc705;fill-opacity:1;stroke:#ffffff;stroke-width:5.69399977;stroke-linecap:butt;stroke-linejoin:round;stroke-miterlimit:4;stroke-opacity:1;stroke-dasharray:none"
       id="rect3732"
       width="112.84872"
       height="122.9473"
       x="293.65164"
       y="864.81409"
       rx="14.708531"
       ry="14.708531" />
  </g>
</svg>
