<?xml version="1.0" encoding="utf-8"?>
<!-- Generator: Adobe Illustrator 26.0.2, SVG Export Plug-In . SVG Version: 6.00 Build 0)  -->
<svg version="1.1" id="Layer_1" xmlns="http://www.w3.org/2000/svg" xmlns:xlink="http://www.w3.org/1999/xlink" x="0px" y="0px"
	 viewBox="0 0 13.6 28" style="enable-background:new 0 0 13.6 28;" xml:space="preserve">
<style type="text/css">
	.st0{fill:#F0C21A;}
</style>
<path id="rect2887_3_" class="st0" d="M7,0c0,0-0.4,0.2-0.5,0.4C6.5,0.6,6.8,0.9,6.8,1.2c0,0.4-0.4,0.7-0.4,1c0,0.3,0.3,0.5,0.2,0.8
	c0,0.2-0.2,0.4-0.4,0.4C6.1,3.4,5.9,3.2,5.9,3c0-0.3,0.4-0.5,0.4-0.8C6.3,1.9,6,1.8,6,1.6c0-0.1,0.2-0.3,0.2-0.3S5.7,1.5,5.7,1.7
	C5.6,1.9,5.8,2,5.8,2.2C5.8,2.7,5.2,3,5.2,3.4c0,0.4,0.2,0.9,0.5,1.2C6,4.8,6.4,5,6.8,5C7.2,5,7.7,4.8,8,4.6
	c0.3-0.3,0.5-0.7,0.5-1.2c0-0.4-0.4-0.7-0.4-1.1c0-0.2,0.2-0.4,0.2-0.6c0-0.3-0.5-0.6-0.5-0.6s0.1,0.4,0.1,0.5
	c0,0.2-0.3,0.4-0.3,0.6c0,0.3,0.3,0.5,0.2,0.7c0,0.2-0.1,0.4-0.3,0.4C7.3,3.4,7.2,3.2,7.1,3C7.1,2.6,7.5,2.3,7.4,2
	c0-0.6-0.6-1-0.5-1.6C6.9,0.3,7,0,7,0z M6.8,5.6c-1.4,0-2.5,1.1-2.5,2.5c0,1.4,1.1,2.5,2.5,2.5c1.4,0,2.5-1.1,2.5-2.5
	C9.3,6.7,8.2,5.6,6.8,5.6z M3.2,8.5c0,0.1,0,0.2,0,0.3c0,2,1.6,3.6,3.6,3.6c2,0,3.6-1.6,3.6-3.6c0-0.1,0-0.2,0-0.3
	c-0.4,1.6-1.9,2.7-3.6,2.7C5.1,11.2,3.7,10,3.2,8.5L3.2,8.5z M0,13v15h3.1V13H0z M3.7,13l3.1,2l3.1-2H3.7z M10.4,13v15h3.1V13H10.4z
	 M3.7,15.5v1.3H5h3.5h1.4v-1.3H8.5H5H3.7z M6.3,17.3c-0.1,0-0.3,0-0.4,0c-1.4,0.3-2.3,1.6-2.3,3.1c0,1.5,1,2.7,2.3,3.1
	C5.4,23.2,5,22.6,5,22v0c0-0.7,0.4-1.4,1.1-1.6c0.2-0.1,0.4-0.1,0.7-0.1h0c0.8,0,1.5-0.7,1.5-1.5C8.2,17.7,7.2,17.2,6.3,17.3
	L6.3,17.3z M7.7,17.3c0.5,0.3,0.8,0.8,0.8,1.4v0c0,0.7-0.4,1.4-1.1,1.6c-0.2,0.1-0.4,0.1-0.7,0.1h0c-0.8,0-1.5,0.7-1.5,1.5
	c0.1,1.1,1.1,1.5,2,1.5c0.1,0,0.3,0,0.4,0C9,23.2,10,21.8,10,20.4C10,18.9,9,17.7,7.7,17.3L7.7,17.3z M6.8,18.2
	c0.3,0,0.6,0.3,0.6,0.6c0,0.3-0.3,0.6-0.6,0.6c-0.3,0-0.6-0.3-0.6-0.6C6.2,18.4,6.5,18.2,6.8,18.2z M6.8,21.4c0.3,0,0.6,0.3,0.6,0.6
	c0,0.3-0.3,0.6-0.6,0.6c-0.3,0-0.6-0.3-0.6-0.6C6.2,21.7,6.5,21.4,6.8,21.4z M3.7,24.1v1.3H5h3.5h1.4v-1.3H8.5H5H3.7z M3.7,25.9
	l3.1,2l3.1-2H3.7z"/>
</svg>
